<svg xmlns="http://www.w3.org/2000/svg" xmlns:xlink="http://www.w3.org/1999/xlink" width="500" zoomAndPan="magnify" viewBox="0 0 375 149.999998" height="200" preserveAspectRatio="xMidYMid meet" version="1.0"><defs><g/><clipPath id="8d6e5b2bb1"><path d="M 251 11 L 360 11 L 360 142 L 251 142 Z M 251 11 " clip-rule="nonzero"/></clipPath><clipPath id="79ae649e07"><path d="M 197.945312 49.34375 L 318.46875 -25.269531 L 378.871094 72.296875 L 258.347656 146.910156 Z M 197.945312 49.34375 " clip-rule="nonzero"/></clipPath><clipPath id="00f48300ef"><path d="M 197.945312 49.34375 L 318.46875 -25.269531 L 378.871094 72.296875 L 258.347656 146.910156 Z M 197.945312 49.34375 " clip-rule="nonzero"/></clipPath><clipPath id="77f91a19b9"><path d="M 19 17 L 137 17 L 137 135 L 19 135 Z M 19 17 " clip-rule="nonzero"/></clipPath><clipPath id="3fabda2b3c"><path d="M -4.125 20.117188 L 136.800781 -9.476562 L 165.3125 126.3125 L 24.386719 155.902344 Z M -4.125 20.117188 " clip-rule="nonzero"/></clipPath><clipPath id="ca20e2db2a"><path d="M -4.125 20.117188 L 136.800781 -9.476562 L 165.3125 126.3125 L 24.386719 155.902344 Z M -4.125 20.117188 " clip-rule="nonzero"/></clipPath><clipPath id="922c85ee80"><path d="M -4.125 20.117188 L 136.800781 -9.476562 L 165.3125 126.3125 L 24.386719 155.902344 Z M -4.125 20.117188 " clip-rule="nonzero"/></clipPath><clipPath id="a0a0e70399"><path d="M 13 11 L 143 11 L 143 141 L 13 141 Z M 13 11 " clip-rule="nonzero"/></clipPath><clipPath id="00717f5c25"><path d="M -4.125 20.117188 L 136.800781 -9.476562 L 165.3125 126.3125 L 24.386719 155.902344 Z M -4.125 20.117188 " clip-rule="nonzero"/></clipPath><clipPath id="3d9e01d667"><path d="M -4.125 20.117188 L 136.800781 -9.476562 L 165.3125 126.3125 L 24.386719 155.902344 Z M -4.125 20.117188 " clip-rule="nonzero"/></clipPath><clipPath id="59edcd6d60"><path d="M -4.125 20.117188 L 136.800781 -9.476562 L 165.3125 126.3125 L 24.386719 155.902344 Z M -4.125 20.117188 " clip-rule="nonzero"/></clipPath><clipPath id="bffa91351c"><path d="M 7 4 L 149 4 L 149 147 L 7 147 Z M 7 4 " clip-rule="nonzero"/></clipPath><clipPath id="c48c1e975e"><path d="M -4.125 20.117188 L 136.800781 -9.476562 L 165.3125 126.3125 L 24.386719 155.902344 Z M -4.125 20.117188 " clip-rule="nonzero"/></clipPath><clipPath id="ef1cd74a52"><path d="M -4.125 20.117188 L 136.800781 -9.476562 L 165.3125 126.3125 L 24.386719 155.902344 Z M -4.125 20.117188 " clip-rule="nonzero"/></clipPath><clipPath id="c821187651"><path d="M -4.125 20.117188 L 136.800781 -9.476562 L 165.3125 126.3125 L 24.386719 155.902344 Z M -4.125 20.117188 " clip-rule="nonzero"/></clipPath><clipPath id="1f3246c5f0"><path d="M 9 6 L 147 6 L 147 145 L 9 145 Z M 9 6 " clip-rule="nonzero"/></clipPath><clipPath id="7b87fb9cee"><path d="M -4.125 20.117188 L 136.800781 -9.476562 L 165.3125 126.3125 L 24.386719 155.902344 Z M -4.125 20.117188 " clip-rule="nonzero"/></clipPath><clipPath id="b58e54ee74"><path d="M -4.125 20.117188 L 136.800781 -9.476562 L 165.3125 126.3125 L 24.386719 155.902344 Z M -4.125 20.117188 " clip-rule="nonzero"/></clipPath><clipPath id="74d5195c42"><path d="M -4.125 20.117188 L 136.800781 -9.476562 L 165.3125 126.3125 L 24.386719 155.902344 Z M -4.125 20.117188 " clip-rule="nonzero"/></clipPath><clipPath id="5bce2b8295"><path d="M 19 17 L 137 17 L 137 135 L 19 135 Z M 19 17 " clip-rule="nonzero"/></clipPath><clipPath id="35766c53c7"><path d="M -4.125 20.117188 L 136.800781 -9.476562 L 165.3125 126.3125 L 24.386719 155.902344 Z M -4.125 20.117188 " clip-rule="nonzero"/></clipPath><clipPath id="76252dbd1d"><path d="M -4.125 20.117188 L 136.800781 -9.476562 L 165.3125 126.3125 L 24.386719 155.902344 Z M -4.125 20.117188 " clip-rule="nonzero"/></clipPath><clipPath id="55c7167bc3"><path d="M -4.125 20.117188 L 136.800781 -9.476562 L 165.3125 126.3125 L 24.386719 155.902344 Z M -4.125 20.117188 " clip-rule="nonzero"/></clipPath><clipPath id="37f650c8b2"><path d="M 13 11 L 143 11 L 143 141 L 13 141 Z M 13 11 " clip-rule="nonzero"/></clipPath><clipPath id="064e389639"><path d="M -4.125 20.117188 L 136.800781 -9.476562 L 165.3125 126.3125 L 24.386719 155.902344 Z M -4.125 20.117188 " clip-rule="nonzero"/></clipPath><clipPath id="9950aa3df5"><path d="M -4.125 20.117188 L 136.800781 -9.476562 L 165.3125 126.3125 L 24.386719 155.902344 Z M -4.125 20.117188 " clip-rule="nonzero"/></clipPath><clipPath id="b84f223b39"><path d="M -4.125 20.117188 L 136.800781 -9.476562 L 165.3125 126.3125 L 24.386719 155.902344 Z M -4.125 20.117188 " clip-rule="nonzero"/></clipPath><clipPath id="017499c21a"><path d="M 7 4 L 149 4 L 149 147 L 7 147 Z M 7 4 " clip-rule="nonzero"/></clipPath><clipPath id="de61561b01"><path d="M -4.125 20.117188 L 136.800781 -9.476562 L 165.3125 126.3125 L 24.386719 155.902344 Z M -4.125 20.117188 " clip-rule="nonzero"/></clipPath><clipPath id="6116983341"><path d="M -4.125 20.117188 L 136.800781 -9.476562 L 165.3125 126.3125 L 24.386719 155.902344 Z M -4.125 20.117188 " clip-rule="nonzero"/></clipPath><clipPath id="096c9e8694"><path d="M -4.125 20.117188 L 136.800781 -9.476562 L 165.3125 126.3125 L 24.386719 155.902344 Z M -4.125 20.117188 " clip-rule="nonzero"/></clipPath><clipPath id="313604e740"><path d="M 9 6 L 147 6 L 147 145 L 9 145 Z M 9 6 " clip-rule="nonzero"/></clipPath><clipPath id="b506db278b"><path d="M -4.125 20.117188 L 136.800781 -9.476562 L 165.3125 126.3125 L 24.386719 155.902344 Z M -4.125 20.117188 " clip-rule="nonzero"/></clipPath><clipPath id="da289344e2"><path d="M -4.125 20.117188 L 136.800781 -9.476562 L 165.3125 126.3125 L 24.386719 155.902344 Z M -4.125 20.117188 " clip-rule="nonzero"/></clipPath><clipPath id="1ccf9d2b29"><path d="M -4.125 20.117188 L 136.800781 -9.476562 L 165.3125 126.3125 L 24.386719 155.902344 Z M -4.125 20.117188 " clip-rule="nonzero"/></clipPath></defs><g clip-path="url(#8d6e5b2bb1)"><g clip-path="url(#79ae649e07)"><g clip-path="url(#00f48300ef)"><path fill="#ec297b" d="M 297.984375 122.121094 C 283.695312 130.96875 269.234375 137.589844 255.738281 141.847656 C 264.519531 138.097656 273.507812 133.441406 282.425781 127.917969 C 327.140625 100.234375 353.171875 61.289062 340.566406 40.921875 C 331.992188 27.070312 307.738281 25.394531 279.019531 34.449219 C 314.246094 19.378906 346.035156 18.824219 356.128906 35.132812 C 368.730469 55.488281 342.703125 94.4375 297.984375 122.121094 Z M 251.207031 43.203125 L 251.023438 42.90625 C 268.875 31.855469 268.375 28.15625 258.3125 11.898438 L 258.609375 11.714844 C 268.675781 27.972656 271.769531 30.0625 289.621094 19.011719 L 289.808594 19.308594 C 271.957031 30.359375 272.441406 34.054688 282.507812 50.3125 L 282.207031 50.496094 C 272.140625 34.242188 269.058594 32.152344 251.207031 43.203125 " fill-opacity="1" fill-rule="evenodd"/></g></g></g><g clip-path="url(#77f91a19b9)"><g clip-path="url(#3fabda2b3c)"><g clip-path="url(#ca20e2db2a)"><g clip-path="url(#922c85ee80)"><path fill="#f2e3e6" d="M 128.507812 121.644531 C 125.765625 122.21875 121.449219 120.304688 120.011719 119.679688 L 119.824219 119.59375 C 113.707031 116.921875 104.503906 113.59375 90.859375 109.175781 C 89.863281 108.835938 88.804688 108.808594 87.796875 109.019531 C 86.789062 109.230469 85.839844 109.722656 85.023438 110.441406 C 76.066406 118.511719 70.035156 124.28125 65.957031 128.71875 L 65.820312 128.871094 C 64.757812 130.019531 61.535156 133.519531 58.832031 134.085938 C 58.511719 134.152344 58.21875 134.171875 57.960938 134.144531 C 57.652344 134.082031 57.296875 133.988281 57.054688 133.828125 C 56.214844 133.246094 55.195312 131.398438 55.003906 125.882812 L 55.019531 125.75 C 54.796875 119.273438 54.136719 109.308594 53.273438 96.988281 C 53.136719 95.121094 52.140625 93.394531 50.539062 92.382812 C 40.074219 85.65625 32.695312 81.1875 27.261719 78.371094 L 27.074219 78.285156 C 21.457031 75.382812 20.09375 73.308594 19.921875 72.082031 C 19.878906 71.671875 19.960938 71.273438 19.976562 71.144531 C 20.273438 70.15625 21.773438 68.664062 27.113281 67.035156 L 27.234375 67.011719 C 33.640625 65.035156 43.53125 61.609375 54.863281 57.632812 C 56.707031 56.992188 58.152344 55.46875 58.644531 53.597656 C 61.992188 41.066406 64.082031 32.375 65.148438 26.214844 L 65.195312 26.039062 C 66.28125 19.789062 67.855469 17.859375 68.964844 17.332031 C 69.117188 17.257812 69.320312 17.214844 69.480469 17.179688 C 69.5625 17.164062 69.722656 17.128906 69.890625 17.136719 C 70.910156 17.175781 72.753906 18.136719 75.941406 22.6875 L 76.007812 22.800781 C 79.75 28.199219 85.972656 36.578125 93.070312 46.113281 C 94.296875 47.75 96.300781 48.675781 98.328125 48.503906 C 110.296875 47.550781 120.769531 46.695312 127.265625 45.964844 L 127.386719 45.9375 C 132.941406 45.320312 134.871094 46.09375 135.574219 46.828125 C 135.679688 46.933594 135.917969 47.261719 136 47.664062 C 136.335938 48.859375 135.929688 51.34375 131.953125 56.261719 L 131.816406 56.417969 C 128.34375 60.722656 123.792969 67.109375 117.863281 75.972656 C 116.804688 77.542969 116.589844 79.523438 117.210938 81.289062 C 121.941406 94.398438 126.003906 105.710938 128.6875 112.472656 L 128.710938 112.59375 C 130.757812 117.71875 130.566406 119.824219 130.03125 120.691406 C 129.90625 120.886719 129.625 121.15625 129.328125 121.34375 C 129.101562 121.476562 128.828125 121.578125 128.507812 121.644531 Z M 128.507812 121.644531 " fill-opacity="1" fill-rule="nonzero"/></g></g></g></g><g clip-path="url(#a0a0e70399)"><g clip-path="url(#00717f5c25)"><g clip-path="url(#3d9e01d667)"><g clip-path="url(#59edcd6d60)"><path fill="#ed83b5" d="M 71.222656 26.285156 C 75.035156 31.800781 81.238281 40.097656 88.335938 49.632812 C 90.800781 52.949219 94.753906 54.726562 98.855469 54.414062 C 111.191406 53.421875 121.210938 52.625 127.789062 51.875 C 127.664062 52.070312 127.488281 52.230469 127.320312 52.4375 L 127.183594 52.589844 C 123.542969 57.101562 119.019531 63.4375 112.902344 72.597656 C 110.78125 75.734375 110.3125 79.707031 111.605469 83.265625 C 116.289062 96.34375 120.339844 107.613281 123.089844 114.488281 C 122.863281 114.410156 122.625 114.292969 122.398438 114.210938 L 122.210938 114.125 C 115.90625 111.367188 106.527344 107.992188 92.699219 103.484375 C 90.664062 102.816406 88.546875 102.757812 86.570312 103.171875 C 84.554688 103.597656 82.605469 104.550781 81.011719 105.980469 C 71.910156 114.164062 65.746094 120.089844 61.5625 124.628906 L 61.425781 124.785156 C 61.257812 124.988281 61.082031 125.152344 60.90625 125.316406 C 60.667969 118.757812 60.003906 108.792969 59.160156 96.550781 C 58.914062 92.773438 56.894531 89.367188 53.730469 87.335938 C 43.113281 80.472656 35.554688 75.957031 29.933594 73.054688 L 29.746094 72.964844 C 29.511719 72.847656 29.316406 72.71875 29.089844 72.640625 C 35.566406 70.609375 45.457031 67.183594 56.757812 63.253906 C 60.488281 61.964844 63.300781 58.933594 64.355469 55.132812 C 67.847656 42.488281 69.984375 33.617188 71.085938 27.242188 L 71.132812 27.0625 C 71.117188 26.773438 71.144531 26.515625 71.222656 26.285156 M 68.285156 11.285156 C 67.71875 11.40625 67.082031 11.582031 66.433594 11.886719 C 61.035156 14.449219 59.730469 22.46875 59.285156 25.171875 C 58.207031 31.460938 55.964844 40.4375 52.820312 51.914062 C 40.777344 56.128906 31.4375 59.351562 25.386719 61.210938 C 22.664062 62.078125 15.886719 64.089844 14.222656 69.195312 C 14.121094 69.511719 13.664062 70.957031 13.925781 72.796875 C 14.75 78.726562 22.039062 82.371094 24.445312 83.59375 C 29.964844 86.433594 37.597656 91.101562 47.242188 97.328125 C 48.105469 109.859375 48.761719 119.613281 48.984375 125.882812 C 49.078125 128.726562 49.257812 135.800781 53.785156 138.722656 C 54.078125 138.914062 55.339844 139.703125 57.160156 139.953125 C 58.15625 140.078125 59.109375 140.003906 60.035156 139.8125 C 64.753906 138.820312 68.816406 134.304688 70.359375 132.632812 C 74.46875 128.152344 80.753906 122.199219 89 114.742188 C 101.5625 118.839844 111.15625 122.214844 117.417969 124.984375 C 119.503906 125.890625 125 128.398438 129.71875 127.410156 C 130.644531 127.214844 131.585938 126.890625 132.445312 126.375 C 134.011719 125.414062 134.851562 124.183594 135.042969 123.890625 C 137.972656 119.402344 135.292969 112.851562 134.261719 110.164062 C 131.679688 103.675781 127.84375 93.03125 122.871094 79.175781 C 128.410156 70.855469 132.953125 64.429688 136.5 60.0625 C 138.199219 57.9375 143.410156 51.667969 141.785156 45.945312 C 141.285156 44.15625 140.289062 43.019531 140.066406 42.769531 C 136.488281 38.765625 129.46875 39.609375 126.632812 39.949219 C 120.347656 40.683594 110.535156 41.480469 97.90625 42.488281 C 90.351562 32.371094 84.53125 24.503906 80.960938 19.316406 C 79.328125 16.964844 75.371094 11.144531 69.972656 11.101562 C 69.722656 11.109375 69.089844 11.117188 68.285156 11.285156 Z M 68.285156 11.285156 " fill-opacity="1" fill-rule="nonzero"/></g></g></g></g><g clip-path="url(#bffa91351c)"><g clip-path="url(#c48c1e975e)"><g clip-path="url(#ef1cd74a52)"><g clip-path="url(#c821187651)"><path fill="#fff48b" d="M 68.285156 11.285156 C 69.132812 11.109375 69.761719 11.101562 69.972656 11.101562 C 75.371094 11.144531 79.335938 17.007812 80.960938 19.316406 C 84.53125 24.503906 90.394531 32.363281 97.898438 42.449219 C 110.527344 41.4375 120.339844 40.640625 126.632812 39.949219 C 129.46875 39.609375 136.488281 38.765625 140.066406 42.769531 C 140.289062 43.019531 141.285156 44.15625 141.785156 45.945312 C 143.417969 51.707031 138.207031 57.980469 136.5 60.0625 C 132.953125 64.429688 128.417969 70.894531 122.871094 79.175781 C 127.84375 93.03125 131.679688 103.675781 134.261719 110.164062 C 135.324219 112.804688 138.003906 119.355469 135.042969 123.890625 C 134.851562 124.183594 134.011719 125.414062 132.445312 126.375 C 131.585938 126.890625 130.683594 127.207031 129.71875 127.410156 C 125 128.398438 119.464844 125.898438 117.417969 124.984375 C 111.15625 122.214844 101.5625 118.839844 89 114.742188 C 80.746094 122.160156 74.46875 128.152344 70.359375 132.632812 C 68.816406 134.304688 64.792969 138.8125 60.035156 139.8125 C 59.109375 140.003906 58.113281 140.089844 57.160156 139.953125 C 55.339844 139.703125 54.070312 138.875 53.785156 138.722656 C 49.296875 135.792969 49.117188 128.71875 48.984375 125.882812 C 48.761719 119.613281 48.105469 109.859375 47.242188 97.328125 C 37.597656 91.101562 29.972656 86.472656 24.445312 83.59375 C 22.03125 82.332031 14.742188 78.6875 13.925781 72.796875 C 13.664062 70.957031 14.121094 69.511719 14.222656 69.195312 C 15.886719 64.089844 22.652344 62.039062 25.386719 61.210938 C 31.425781 59.3125 40.769531 56.085938 52.820312 51.914062 C 55.964844 40.4375 58.207031 31.460938 59.285156 25.171875 C 59.730469 22.46875 61.035156 14.449219 66.433594 11.886719 C 67.082031 11.582031 67.71875 11.40625 68.285156 11.285156 M 67.015625 5.238281 C 65.886719 5.476562 64.824219 5.824219 63.824219 6.289062 C 55.628906 10.15625 53.84375 20.507812 53.253906 23.914062 L 53.207031 24.09375 C 52.320312 29.289062 50.492188 36.828125 47.730469 47.132812 C 37.800781 50.566406 29.207031 53.546875 23.550781 55.28125 L 23.429688 55.308594 C 20.03125 56.359375 10.980469 59.183594 8.34375 67.273438 C 7.953125 68.410156 7.390625 70.757812 7.78125 73.621094 C 8.992188 82.585938 18.339844 87.402344 21.410156 88.988281 L 21.59375 89.074219 C 26.175781 91.4375 32.628906 95.304688 41.277344 100.8125 C 42.027344 111.597656 42.589844 120.28125 42.789062 126.046875 L 42.773438 126.175781 C 42.886719 129.730469 43.238281 139.210938 50.359375 143.863281 C 50.359375 143.863281 50.410156 143.894531 50.410156 143.894531 C 52.207031 145.03125 54.21875 145.789062 56.335938 146.058594 C 57.980469 146.261719 59.652344 146.207031 61.304688 145.859375 C 67.835938 144.488281 72.667969 139.222656 74.761719 136.972656 L 74.898438 136.816406 C 78.257812 133.164062 83.367188 128.21875 90.511719 121.75 C 101.910156 125.503906 109.75 128.359375 114.984375 130.628906 L 115.171875 130.714844 C 117.953125 131.941406 124.535156 134.8125 131.066406 133.441406 C 132.761719 133.085938 134.316406 132.464844 135.695312 131.625 C 137.980469 130.261719 139.417969 128.488281 140.253906 127.261719 C 140.253906 127.261719 140.285156 127.210938 140.285156 127.210938 C 144.9375 120.089844 141.402344 111.273438 140.117188 107.964844 L 140.050781 107.855469 C 137.640625 101.792969 134.015625 91.734375 129.78125 79.996094 C 134.664062 72.78125 138.4375 67.488281 141.34375 63.886719 L 141.480469 63.734375 C 142.550781 62.414062 144.480469 59.988281 146.0625 56.878906 C 148.3125 52.363281 148.886719 48.074219 147.765625 44.144531 C 146.972656 41.363281 145.523438 39.476562 144.699219 38.558594 C 139.027344 32.210938 129.609375 33.265625 126.074219 33.671875 L 125.953125 33.695312 C 120.238281 34.347656 111.257812 35.097656 100.828125 35.941406 C 94.621094 27.644531 89.316406 20.425781 86.046875 15.679688 L 85.980469 15.570312 C 83.933594 12.632812 78.550781 4.835938 70.03125 4.773438 C 70.03125 4.773438 69.992188 4.78125 69.992188 4.78125 C 68.96875 4.914062 67.984375 5.035156 67.015625 5.238281 Z M 67.015625 5.238281 " fill-opacity="1" fill-rule="nonzero"/></g></g></g></g><g clip-path="url(#1f3246c5f0)"><g clip-path="url(#7b87fb9cee)"><g clip-path="url(#b58e54ee74)"><g clip-path="url(#74d5195c42)"><path fill="#ec297b" d="M 130.582031 131.730469 C 124.65625 132.976562 118.488281 130.273438 115.84375 129.101562 L 115.65625 129.015625 C 110.226562 126.621094 102.03125 123.667969 90 119.710938 C 82.4375 126.601562 77.007812 131.828125 73.515625 135.632812 L 73.378906 135.789062 C 70.980469 138.398438 64.566406 145.34375 56.554688 144.289062 C 54.734375 144.039062 52.957031 143.402344 51.40625 142.421875 C 51.40625 142.421875 51.40625 142.421875 51.355469 142.390625 C 45.054688 138.242188 44.730469 129.46875 44.625 126.167969 L 44.640625 126.039062 C 44.445312 120.101562 43.839844 111.007812 43.085938 99.800781 C 33.988281 93.964844 27.203125 89.917969 22.476562 87.457031 L 22.289062 87.371094 C 19.121094 85.722656 10.726562 81.421875 9.671875 73.394531 C 9.316406 70.902344 9.8125 68.859375 10.152344 67.863281 C 12.476562 60.679688 20.855469 58.078125 24.019531 57.121094 L 24.140625 57.09375 C 29.992188 55.277344 38.9375 52.175781 49.296875 48.570312 C 52.238281 37.722656 54.160156 29.828125 55.085938 24.414062 L 55.132812 24.234375 C 55.746094 20.738281 57.320312 11.398438 64.679688 7.960938 C 66.332031 7.191406 68.21875 6.753906 70.027344 6.753906 C 77.617188 6.800781 82.621094 14 84.496094 16.722656 L 84.5625 16.835938 C 87.996094 21.753906 93.53125 29.265625 99.988281 37.96875 C 110.882812 37.113281 120.273438 36.320312 126.199219 35.664062 L 126.320312 35.640625 C 129.613281 35.285156 138.328125 34.296875 143.335938 39.894531 C 144.007812 40.679688 145.273438 42.308594 145.992188 44.726562 C 148.21875 52.507812 142.265625 59.863281 140.0625 62.597656 L 139.925781 62.753906 C 136.882812 66.507812 132.882812 72.105469 127.75 79.75 C 132.109375 91.882812 135.851562 102.296875 138.34375 108.550781 L 138.410156 108.660156 C 139.644531 111.726562 142.875 119.890625 138.773438 126.222656 C 138.773438 126.222656 138.773438 126.222656 138.742188 126.273438 C 138.039062 127.347656 136.761719 128.878906 134.777344 130.050781 C 133.363281 130.9375 131.996094 131.4375 130.582031 131.730469 Z M 88.085938 110.597656 C 88.8125 110.445312 89.582031 110.496094 90.300781 110.722656 C 103.902344 115.148438 113.058594 118.449219 119.128906 121.085938 L 119.316406 121.175781 C 127.105469 124.589844 129.417969 123.179688 130.164062 122.726562 C 130.839844 122.332031 131.230469 121.789062 131.390625 121.542969 C 133.039062 118.964844 131.003906 113.878906 130.257812 111.929688 L 130.191406 111.820312 C 127.515625 105.097656 123.457031 93.785156 118.734375 80.714844 C 118.253906 79.429688 118.457031 77.996094 119.191406 76.875 C 125.085938 68.058594 129.597656 61.679688 133.039062 57.421875 L 133.175781 57.269531 C 138.527344 50.671875 137.765625 48.054688 137.546875 47.214844 C 137.28125 46.34375 136.78125 45.777344 136.773438 45.734375 C 134.730469 43.429688 129.226562 44.078125 127.167969 44.300781 L 127.046875 44.324219 C 120.550781 45.058594 110.578125 45.890625 98.191406 46.847656 C 96.699219 46.953125 95.261719 46.328125 94.378906 45.125 C 87.28125 35.585938 81.066406 27.25 77.324219 21.847656 L 77.257812 21.738281 C 76.0625 20.050781 72.914062 15.492188 69.875 15.457031 C 69.707031 15.449219 68.996094 15.472656 68.230469 15.84375 C 64.972656 17.371094 63.902344 23.699219 63.535156 25.753906 L 63.488281 25.933594 C 62.414062 32.050781 60.355469 40.691406 56.933594 53.070312 C 56.550781 54.457031 55.519531 55.558594 54.183594 56.007812 C 42.84375 59.945312 32.953125 63.371094 26.589844 65.335938 L 26.46875 65.363281 C 24.492188 65.988281 19.191406 67.605469 18.25 70.539062 C 18.21875 70.589844 17.992188 71.308594 18.136719 72.207031 C 18.632812 75.765625 24.300781 78.699219 26.183594 79.652344 L 26.371094 79.738281 C 31.753906 82.523438 39.125 86.953125 49.542969 93.648438 C 50.703125 94.371094 51.425781 95.609375 51.503906 96.980469 C 52.367188 109.300781 53.019531 119.226562 53.234375 125.664062 L 53.257812 125.785156 C 53.320312 127.875 53.542969 133.34375 56.085938 135.042969 C 56.566406 135.320312 57.117188 135.539062 57.683594 135.632812 C 61.234375 136.105469 65.554688 131.410156 66.996094 129.847656 L 67.128906 129.691406 C 71.136719 125.3125 77.167969 119.542969 86.089844 111.523438 C 86.675781 111.105469 87.359375 110.75 88.085938 110.597656 Z M 136.46875 60.113281 Z M 136.46875 60.113281 " fill-opacity="1" fill-rule="nonzero"/></g></g></g></g><g clip-path="url(#5bce2b8295)"><g clip-path="url(#35766c53c7)"><g clip-path="url(#76252dbd1d)"><g clip-path="url(#55c7167bc3)"><path fill="#f2e3e6" d="M 128.507812 121.644531 C 125.765625 122.21875 121.449219 120.304688 120.011719 119.679688 L 119.824219 119.59375 C 113.707031 116.921875 104.503906 113.59375 90.859375 109.175781 C 89.863281 108.835938 88.804688 108.808594 87.796875 109.019531 C 86.789062 109.230469 85.839844 109.722656 85.023438 110.441406 C 76.066406 118.511719 70.035156 124.28125 65.957031 128.71875 L 65.820312 128.871094 C 64.757812 130.019531 61.535156 133.519531 58.832031 134.085938 C 58.511719 134.152344 58.21875 134.171875 57.960938 134.144531 C 57.652344 134.082031 57.296875 133.988281 57.054688 133.828125 C 56.214844 133.246094 55.195312 131.398438 55.003906 125.882812 L 55.019531 125.75 C 54.796875 119.273438 54.136719 109.308594 53.273438 96.988281 C 53.136719 95.121094 52.140625 93.394531 50.539062 92.382812 C 40.074219 85.65625 32.695312 81.1875 27.261719 78.371094 L 27.074219 78.285156 C 21.457031 75.382812 20.09375 73.308594 19.921875 72.082031 C 19.878906 71.671875 19.960938 71.273438 19.976562 71.144531 C 20.273438 70.15625 21.773438 68.664062 27.113281 67.035156 L 27.234375 67.011719 C 33.640625 65.035156 43.53125 61.609375 54.863281 57.632812 C 56.707031 56.992188 58.152344 55.46875 58.644531 53.597656 C 61.992188 41.066406 64.082031 32.375 65.148438 26.214844 L 65.195312 26.039062 C 66.28125 19.789062 67.855469 17.859375 68.964844 17.332031 C 69.117188 17.257812 69.320312 17.214844 69.480469 17.179688 C 69.5625 17.164062 69.722656 17.128906 69.890625 17.136719 C 70.910156 17.175781 72.753906 18.136719 75.941406 22.6875 L 76.007812 22.800781 C 79.75 28.199219 85.972656 36.578125 93.070312 46.113281 C 94.296875 47.75 96.300781 48.675781 98.328125 48.503906 C 110.296875 47.550781 120.769531 46.695312 127.265625 45.964844 L 127.386719 45.9375 C 132.941406 45.320312 134.871094 46.09375 135.574219 46.828125 C 135.679688 46.933594 135.917969 47.261719 136 47.664062 C 136.335938 48.859375 135.929688 51.34375 131.953125 56.261719 L 131.816406 56.417969 C 128.34375 60.722656 123.792969 67.109375 117.863281 75.972656 C 116.804688 77.542969 116.589844 79.523438 117.210938 81.289062 C 121.941406 94.398438 126.003906 105.710938 128.6875 112.472656 L 128.710938 112.59375 C 130.757812 117.71875 130.566406 119.824219 130.03125 120.691406 C 129.90625 120.886719 129.625 121.15625 129.328125 121.34375 C 129.101562 121.476562 128.828125 121.578125 128.507812 121.644531 Z M 128.507812 121.644531 " fill-opacity="1" fill-rule="nonzero"/></g></g></g></g><g clip-path="url(#37f650c8b2)"><g clip-path="url(#064e389639)"><g clip-path="url(#9950aa3df5)"><g clip-path="url(#b84f223b39)"><path fill="#ed83b5" d="M 71.222656 26.285156 C 75.035156 31.800781 81.238281 40.097656 88.335938 49.632812 C 90.800781 52.949219 94.753906 54.726562 98.855469 54.414062 C 111.191406 53.421875 121.210938 52.625 127.789062 51.875 C 127.664062 52.070312 127.488281 52.230469 127.320312 52.4375 L 127.183594 52.589844 C 123.542969 57.101562 119.019531 63.4375 112.902344 72.597656 C 110.78125 75.734375 110.3125 79.707031 111.605469 83.265625 C 116.289062 96.34375 120.339844 107.613281 123.089844 114.488281 C 122.863281 114.410156 122.625 114.292969 122.398438 114.210938 L 122.210938 114.125 C 115.90625 111.367188 106.527344 107.992188 92.699219 103.484375 C 90.664062 102.816406 88.546875 102.757812 86.570312 103.171875 C 84.554688 103.597656 82.605469 104.550781 81.011719 105.980469 C 71.910156 114.164062 65.746094 120.089844 61.5625 124.628906 L 61.425781 124.785156 C 61.257812 124.988281 61.082031 125.152344 60.90625 125.316406 C 60.667969 118.757812 60.003906 108.792969 59.160156 96.550781 C 58.914062 92.773438 56.894531 89.367188 53.730469 87.335938 C 43.113281 80.472656 35.554688 75.957031 29.933594 73.054688 L 29.746094 72.964844 C 29.511719 72.847656 29.316406 72.71875 29.089844 72.640625 C 35.566406 70.609375 45.457031 67.183594 56.757812 63.253906 C 60.488281 61.964844 63.300781 58.933594 64.355469 55.132812 C 67.847656 42.488281 69.984375 33.617188 71.085938 27.242188 L 71.132812 27.0625 C 71.117188 26.773438 71.144531 26.515625 71.222656 26.285156 M 68.285156 11.285156 C 67.71875 11.40625 67.082031 11.582031 66.433594 11.886719 C 61.035156 14.449219 59.730469 22.46875 59.285156 25.171875 C 58.207031 31.460938 55.964844 40.4375 52.820312 51.914062 C 40.777344 56.128906 31.4375 59.351562 25.386719 61.210938 C 22.664062 62.078125 15.886719 64.089844 14.222656 69.195312 C 14.121094 69.511719 13.664062 70.957031 13.925781 72.796875 C 14.75 78.726562 22.039062 82.371094 24.445312 83.59375 C 29.964844 86.433594 37.597656 91.101562 47.242188 97.328125 C 48.105469 109.859375 48.761719 119.613281 48.984375 125.882812 C 49.078125 128.726562 49.257812 135.800781 53.785156 138.722656 C 54.078125 138.914062 55.339844 139.703125 57.160156 139.953125 C 58.15625 140.078125 59.109375 140.003906 60.035156 139.8125 C 64.753906 138.820312 68.816406 134.304688 70.359375 132.632812 C 74.46875 128.152344 80.753906 122.199219 89 114.742188 C 101.5625 118.839844 111.15625 122.214844 117.417969 124.984375 C 119.503906 125.890625 125 128.398438 129.71875 127.410156 C 130.644531 127.214844 131.585938 126.890625 132.445312 126.375 C 134.011719 125.414062 134.851562 124.183594 135.042969 123.890625 C 137.972656 119.402344 135.292969 112.851562 134.261719 110.164062 C 131.679688 103.675781 127.84375 93.03125 122.871094 79.175781 C 128.410156 70.855469 132.953125 64.429688 136.5 60.0625 C 138.199219 57.9375 143.410156 51.667969 141.785156 45.945312 C 141.285156 44.15625 140.289062 43.019531 140.066406 42.769531 C 136.488281 38.765625 129.46875 39.609375 126.632812 39.949219 C 120.347656 40.683594 110.535156 41.480469 97.90625 42.488281 C 90.351562 32.371094 84.53125 24.503906 80.960938 19.316406 C 79.328125 16.964844 75.371094 11.144531 69.972656 11.101562 C 69.722656 11.109375 69.089844 11.117188 68.285156 11.285156 Z M 68.285156 11.285156 " fill-opacity="1" fill-rule="nonzero"/></g></g></g></g><g clip-path="url(#017499c21a)"><g clip-path="url(#de61561b01)"><g clip-path="url(#6116983341)"><g clip-path="url(#096c9e8694)"><path fill="#fff48b" d="M 68.285156 11.285156 C 69.132812 11.109375 69.761719 11.101562 69.972656 11.101562 C 75.371094 11.144531 79.335938 17.007812 80.960938 19.316406 C 84.53125 24.503906 90.394531 32.363281 97.898438 42.449219 C 110.527344 41.4375 120.339844 40.640625 126.632812 39.949219 C 129.46875 39.609375 136.488281 38.765625 140.066406 42.769531 C 140.289062 43.019531 141.285156 44.15625 141.785156 45.945312 C 143.417969 51.707031 138.207031 57.980469 136.5 60.0625 C 132.953125 64.429688 128.417969 70.894531 122.871094 79.175781 C 127.84375 93.03125 131.679688 103.675781 134.261719 110.164062 C 135.324219 112.804688 138.003906 119.355469 135.042969 123.890625 C 134.851562 124.183594 134.011719 125.414062 132.445312 126.375 C 131.585938 126.890625 130.683594 127.207031 129.71875 127.410156 C 125 128.398438 119.464844 125.898438 117.417969 124.984375 C 111.15625 122.214844 101.5625 118.839844 89 114.742188 C 80.746094 122.160156 74.46875 128.152344 70.359375 132.632812 C 68.816406 134.304688 64.792969 138.8125 60.035156 139.8125 C 59.109375 140.003906 58.113281 140.089844 57.160156 139.953125 C 55.339844 139.703125 54.070312 138.875 53.785156 138.722656 C 49.296875 135.792969 49.117188 128.71875 48.984375 125.882812 C 48.761719 119.613281 48.105469 109.859375 47.242188 97.328125 C 37.597656 91.101562 29.972656 86.472656 24.445312 83.59375 C 22.03125 82.332031 14.742188 78.6875 13.925781 72.796875 C 13.664062 70.957031 14.121094 69.511719 14.222656 69.195312 C 15.886719 64.089844 22.652344 62.039062 25.386719 61.210938 C 31.425781 59.3125 40.769531 56.085938 52.820312 51.914062 C 55.964844 40.4375 58.207031 31.460938 59.285156 25.171875 C 59.730469 22.46875 61.035156 14.449219 66.433594 11.886719 C 67.082031 11.582031 67.71875 11.40625 68.285156 11.285156 M 67.015625 5.238281 C 65.886719 5.476562 64.824219 5.824219 63.824219 6.289062 C 55.628906 10.15625 53.84375 20.507812 53.253906 23.914062 L 53.207031 24.09375 C 52.320312 29.289062 50.492188 36.828125 47.730469 47.132812 C 37.800781 50.566406 29.207031 53.546875 23.550781 55.28125 L 23.429688 55.308594 C 20.03125 56.359375 10.980469 59.183594 8.34375 67.273438 C 7.953125 68.410156 7.390625 70.757812 7.78125 73.621094 C 8.992188 82.585938 18.339844 87.402344 21.410156 88.988281 L 21.59375 89.074219 C 26.175781 91.4375 32.628906 95.304688 41.277344 100.8125 C 42.027344 111.597656 42.589844 120.28125 42.789062 126.046875 L 42.773438 126.175781 C 42.886719 129.730469 43.238281 139.210938 50.359375 143.863281 C 50.359375 143.863281 50.410156 143.894531 50.410156 143.894531 C 52.207031 145.03125 54.21875 145.789062 56.335938 146.058594 C 57.980469 146.261719 59.652344 146.207031 61.304688 145.859375 C 67.835938 144.488281 72.667969 139.222656 74.761719 136.972656 L 74.898438 136.816406 C 78.257812 133.164062 83.367188 128.21875 90.511719 121.75 C 101.910156 125.503906 109.75 128.359375 114.984375 130.628906 L 115.171875 130.714844 C 117.953125 131.941406 124.535156 134.8125 131.066406 133.441406 C 132.761719 133.085938 134.316406 132.464844 135.695312 131.625 C 137.980469 130.261719 139.417969 128.488281 140.253906 127.261719 C 140.253906 127.261719 140.285156 127.210938 140.285156 127.210938 C 144.9375 120.089844 141.402344 111.273438 140.117188 107.964844 L 140.050781 107.855469 C 137.640625 101.792969 134.015625 91.734375 129.78125 79.996094 C 134.664062 72.78125 138.4375 67.488281 141.34375 63.886719 L 141.480469 63.734375 C 142.550781 62.414062 144.480469 59.988281 146.0625 56.878906 C 148.3125 52.363281 148.886719 48.074219 147.765625 44.144531 C 146.972656 41.363281 145.523438 39.476562 144.699219 38.558594 C 139.027344 32.210938 129.609375 33.265625 126.074219 33.671875 L 125.953125 33.695312 C 120.238281 34.347656 111.257812 35.097656 100.828125 35.941406 C 94.621094 27.644531 89.316406 20.425781 86.046875 15.679688 L 85.980469 15.570312 C 83.933594 12.632812 78.550781 4.835938 70.03125 4.773438 C 70.03125 4.773438 69.992188 4.78125 69.992188 4.78125 C 68.96875 4.914062 67.984375 5.035156 67.015625 5.238281 Z M 67.015625 5.238281 " fill-opacity="1" fill-rule="nonzero"/></g></g></g></g><g clip-path="url(#313604e740)"><g clip-path="url(#b506db278b)"><g clip-path="url(#da289344e2)"><g clip-path="url(#1ccf9d2b29)"><path fill="#ec297b" d="M 130.582031 131.730469 C 124.65625 132.976562 118.488281 130.273438 115.84375 129.101562 L 115.65625 129.015625 C 110.226562 126.621094 102.03125 123.667969 90 119.710938 C 82.4375 126.601562 77.007812 131.828125 73.515625 135.632812 L 73.378906 135.789062 C 70.980469 138.398438 64.566406 145.34375 56.554688 144.289062 C 54.734375 144.039062 52.957031 143.402344 51.40625 142.421875 C 51.40625 142.421875 51.40625 142.421875 51.355469 142.390625 C 45.054688 138.242188 44.730469 129.46875 44.625 126.167969 L 44.640625 126.039062 C 44.445312 120.101562 43.839844 111.007812 43.085938 99.800781 C 33.988281 93.964844 27.203125 89.917969 22.476562 87.457031 L 22.289062 87.371094 C 19.121094 85.722656 10.726562 81.421875 9.671875 73.394531 C 9.316406 70.902344 9.8125 68.859375 10.152344 67.863281 C 12.476562 60.679688 20.855469 58.078125 24.019531 57.121094 L 24.140625 57.09375 C 29.992188 55.277344 38.9375 52.175781 49.296875 48.570312 C 52.238281 37.722656 54.160156 29.828125 55.085938 24.414062 L 55.132812 24.234375 C 55.746094 20.738281 57.320312 11.398438 64.679688 7.960938 C 66.332031 7.191406 68.21875 6.753906 70.027344 6.753906 C 77.617188 6.800781 82.621094 14 84.496094 16.722656 L 84.5625 16.835938 C 87.996094 21.753906 93.53125 29.265625 99.988281 37.96875 C 110.882812 37.113281 120.273438 36.320312 126.199219 35.664062 L 126.320312 35.640625 C 129.613281 35.285156 138.328125 34.296875 143.335938 39.894531 C 144.007812 40.679688 145.273438 42.308594 145.992188 44.726562 C 148.21875 52.507812 142.265625 59.863281 140.0625 62.597656 L 139.925781 62.753906 C 136.882812 66.507812 132.882812 72.105469 127.75 79.75 C 132.109375 91.882812 135.851562 102.296875 138.34375 108.550781 L 138.410156 108.660156 C 139.644531 111.726562 142.875 119.890625 138.773438 126.222656 C 138.773438 126.222656 138.773438 126.222656 138.742188 126.273438 C 138.039062 127.347656 136.761719 128.878906 134.777344 130.050781 C 133.363281 130.9375 131.996094 131.4375 130.582031 131.730469 Z M 88.085938 110.597656 C 88.8125 110.445312 89.582031 110.496094 90.300781 110.722656 C 103.902344 115.148438 113.058594 118.449219 119.128906 121.085938 L 119.316406 121.175781 C 127.105469 124.589844 129.417969 123.179688 130.164062 122.726562 C 130.839844 122.332031 131.230469 121.789062 131.390625 121.542969 C 133.039062 118.964844 131.003906 113.878906 130.257812 111.929688 L 130.191406 111.820312 C 127.515625 105.097656 123.457031 93.785156 118.734375 80.714844 C 118.253906 79.429688 118.457031 77.996094 119.191406 76.875 C 125.085938 68.058594 129.597656 61.679688 133.039062 57.421875 L 133.175781 57.269531 C 138.527344 50.671875 137.765625 48.054688 137.546875 47.214844 C 137.28125 46.34375 136.78125 45.777344 136.773438 45.734375 C 134.730469 43.429688 129.226562 44.078125 127.167969 44.300781 L 127.046875 44.324219 C 120.550781 45.058594 110.578125 45.890625 98.191406 46.847656 C 96.699219 46.953125 95.261719 46.328125 94.378906 45.125 C 87.28125 35.585938 81.066406 27.25 77.324219 21.847656 L 77.257812 21.738281 C 76.0625 20.050781 72.914062 15.492188 69.875 15.457031 C 69.707031 15.449219 68.996094 15.472656 68.230469 15.84375 C 64.972656 17.371094 63.902344 23.699219 63.535156 25.753906 L 63.488281 25.933594 C 62.414062 32.050781 60.355469 40.691406 56.933594 53.070312 C 56.550781 54.457031 55.519531 55.558594 54.183594 56.007812 C 42.84375 59.945312 32.953125 63.371094 26.589844 65.335938 L 26.46875 65.363281 C 24.492188 65.988281 19.191406 67.605469 18.25 70.539062 C 18.21875 70.589844 17.992188 71.308594 18.136719 72.207031 C 18.632812 75.765625 24.300781 78.699219 26.183594 79.652344 L 26.371094 79.738281 C 31.753906 82.523438 39.125 86.953125 49.542969 93.648438 C 50.703125 94.371094 51.425781 95.609375 51.503906 96.980469 C 52.367188 109.300781 53.019531 119.226562 53.234375 125.664062 L 53.257812 125.785156 C 53.320312 127.875 53.542969 133.34375 56.085938 135.042969 C 56.566406 135.320312 57.117188 135.539062 57.683594 135.632812 C 61.234375 136.105469 65.554688 131.410156 66.996094 129.847656 L 67.128906 129.691406 C 71.136719 125.3125 77.167969 119.542969 86.089844 111.523438 C 86.675781 111.105469 87.359375 110.75 88.085938 110.597656 Z M 136.46875 60.113281 Z M 136.46875 60.113281 " fill-opacity="1" fill-rule="nonzero"/></g></g></g></g><path stroke-linecap="butt" transform="matrix(0.70259, 0, 0, 0.70259, 72.845564, 46.077626)" fill="none" stroke-linejoin="miter" d="M 7.65324 69.998392 L 23.887809 69.998392 C 24.794054 69.998392 25.511266 69.220022 25.511266 68.313777 L 25.511266 57.93366 C 25.511266 57.027416 26.228479 56.310203 27.151403 56.310203 L 53.938442 56.310203 C 54.844687 56.310203 55.561899 55.598551 55.561899 54.675627 L 55.561899 40.331384 C 55.561899 39.425139 54.77797 38.707927 53.871725 38.707927 L 27.151403 38.707927 C 26.228479 38.707927 25.511266 37.996275 25.511266 37.08447 C 25.511266 36.161546 26.228479 35.449894 27.151403 35.449894 L 56.545981 35.449894 C 57.452226 35.449894 58.169438 34.732682 58.169438 33.826437 L 58.169438 19.482194 C 58.169438 18.55927 57.452226 17.842058 56.545981 17.842058 L 7.592082 17.842058 C 6.669158 17.842058 5.951946 18.55927 5.951946 19.482194 L 5.951946 68.374935 C 5.951946 69.28118 6.746995 69.998392 7.65324 69.998392 Z M 63.128765 69.998392 L 79.363335 69.998392 C 80.269579 69.998392 80.986792 69.28118 80.986792 68.374935 L 80.986792 59.24021 C 80.986792 58.333965 81.704004 57.616753 82.626928 57.616753 C 83.533173 57.616753 84.250385 58.395122 84.250385 59.306927 L 84.250385 68.374935 C 84.250385 69.28118 85.028755 69.998392 85.934999 69.998392 L 102.169569 69.998392 C 103.092493 69.998392 103.809705 69.28118 103.809705 68.374935 L 103.809705 31.152181 C 103.809705 23.44632 98.205443 17.842058 90.505142 17.842058 L 74.732035 17.842058 C 67.042853 17.842058 61.427471 23.44632 61.427471 31.152181 L 61.427471 68.374935 C 61.427471 69.28118 62.22252 69.998392 63.128765 69.998392 Z M 82.626928 41.97152 C 81.704004 41.97152 80.986792 41.254308 80.986792 40.331384 L 80.986792 35.127426 C 80.986792 34.204502 81.704004 33.48729 82.626928 33.48729 C 83.533173 33.48729 84.250385 34.204502 84.250385 35.127426 L 84.250385 40.331384 C 84.250385 41.254308 83.533173 41.97152 82.626928 41.97152 Z M 108.696755 69.998392 L 145.925069 69.998392 C 153.608691 69.998392 159.212953 64.399689 159.212953 56.693829 L 159.212953 49.404952 C 159.212953 41.704651 153.608691 36.100388 145.925069 36.100388 L 128.256076 36.100388 C 127.333151 36.100388 126.615939 35.383176 126.615939 34.476931 C 126.615939 33.554007 127.333151 32.836795 128.256076 32.836795 L 157.589496 32.836795 C 158.495741 32.836795 159.212953 32.119583 159.212953 31.213338 L 159.212953 19.482194 C 159.212953 18.55927 158.495741 17.842058 157.589496 17.842058 L 120.361182 17.842058 C 112.677561 17.842058 107.056619 23.44632 107.056619 31.152181 L 107.056619 38.457737 C 107.056619 46.141358 112.677561 51.745621 120.361182 51.745621 L 138.030176 51.745621 C 138.936421 51.745621 139.653633 52.462833 139.653633 53.385757 C 139.653633 54.292002 138.936421 55.009214 138.030176 55.009214 L 108.696755 55.009214 C 107.773831 55.009214 107.056619 55.726426 107.056619 56.632671 L 107.056619 68.374935 C 107.056619 69.28118 107.773831 69.998392 108.696755 69.998392 Z M 164.17228 69.998392 L 180.40129 69.998392 C 181.313095 69.998392 182.024747 69.28118 182.024747 68.374935 L 182.024747 54.019572 C 182.024747 53.113328 182.741959 52.396115 183.664883 52.396115 C 184.571128 52.396115 185.28834 53.180045 185.28834 54.102969 L 185.28834 68.374935 C 185.28834 69.28118 186.06671 69.998392 186.978515 69.998392 L 203.213084 69.998392 C 204.136008 69.998392 204.847661 69.28118 204.847661 68.374935 L 204.847661 19.482194 C 204.847661 18.55927 204.069291 17.842058 203.146367 17.842058 L 186.911797 17.842058 C 186.005552 17.842058 185.28834 18.55927 185.28834 19.482194 L 185.28834 33.826437 C 185.28834 34.732682 184.571128 35.449894 183.664883 35.449894 C 182.741959 35.449894 182.024747 34.732682 182.024747 33.826437 L 182.024747 19.482194 C 182.024747 18.55927 181.246377 17.842058 180.340132 17.842058 L 164.105563 17.842058 C 163.182639 17.842058 162.465427 18.55927 162.465427 19.482194 L 162.465427 68.374935 C 162.465427 69.28118 163.260476 69.998392 164.17228 69.998392 Z M 209.801428 69.998392 L 226.035998 69.998392 C 226.942242 69.998392 227.659454 69.28118 227.659454 68.374935 L 227.659454 19.482194 C 227.659454 18.55927 226.875525 17.842058 225.96928 17.842058 L 209.734711 17.842058 C 208.811787 17.842058 208.100134 18.55927 208.100134 19.482194 L 208.100134 68.374935 C 208.100134 69.28118 208.895183 69.998392 209.801428 69.998392 Z M 244.216491 69.998392 L 259.989599 69.998392 C 267.695459 69.998392 273.294162 64.399689 273.294162 56.693829 L 273.294162 31.152181 C 273.294162 23.44632 267.695459 17.842058 259.989599 17.842058 L 244.216491 17.842058 C 236.53287 17.842058 230.911928 23.44632 230.911928 31.152181 L 230.911928 56.693829 C 230.911928 64.399689 236.53287 69.998392 244.216491 69.998392 Z M 252.111385 55.009214 C 251.188461 55.009214 250.471248 54.292002 250.471248 53.385757 L 250.471248 34.476931 C 250.471248 33.554007 251.188461 32.836795 252.111385 32.836795 C 253.017629 32.836795 253.734842 33.554007 253.734842 34.476931 L 253.734842 53.385757 C 253.734842 54.292002 253.017629 55.009214 252.111385 55.009214 Z M 278.247929 69.998392 L 294.482499 69.998392 C 295.388744 69.998392 296.105956 69.28118 296.105956 68.374935 L 296.105956 39.363982 C 296.105956 38.457737 296.823168 37.723845 297.746092 37.723845 C 298.652337 37.723845 299.369549 38.457737 299.369549 39.363982 L 299.369549 68.441652 C 299.369549 69.409055 300.081201 69.998392 301.054164 69.998392 L 336.848053 69.998392 C 337.770977 69.998392 338.48819 69.28118 338.48819 68.374935 L 338.48819 19.482194 C 338.48819 18.55927 337.770977 17.842058 336.848053 17.842058 L 320.552326 17.842058 C 319.646081 17.842058 318.928869 18.55927 318.928869 19.482194 L 318.928869 48.94349 C 318.928869 49.849734 318.211657 50.566947 317.288733 50.566947 C 316.382488 50.566947 315.665276 49.849734 315.665276 48.94349 L 315.665276 19.421036 C 315.665276 18.370237 314.948064 17.842058 313.963982 17.842058 L 278.181212 17.842058 C 277.258288 17.842058 276.546636 18.55927 276.546636 19.482194 L 276.546636 68.374935 C 276.546636 69.28118 277.341685 69.998392 278.247929 69.998392 Z M 278.247929 69.998392 " stroke="#fff48b" stroke-width="9.453347" stroke-opacity="1" stroke-miterlimit="4"/><g fill="#ec297b" fill-opacity="1"><g transform="translate(75.886463, 95.258942)"><g><path d="M 2.335938 0 L 13.742188 0 C 14.382812 0 14.886719 -0.550781 14.886719 -1.191406 L 14.886719 -8.472656 C 14.886719 -9.113281 15.390625 -9.617188 16.03125 -9.617188 L 34.855469 -9.617188 C 35.496094 -9.617188 36 -10.121094 36 -10.761719 L 36 -20.839844 C 36 -21.480469 35.449219 -21.984375 34.808594 -21.984375 L 16.03125 -21.984375 C 15.390625 -21.984375 14.886719 -22.488281 14.886719 -23.128906 C 14.886719 -23.769531 15.390625 -24.273438 16.03125 -24.273438 L 36.6875 -24.273438 C 37.328125 -24.273438 37.832031 -24.777344 37.832031 -25.421875 L 37.832031 -35.496094 C 37.832031 -36.136719 37.328125 -36.640625 36.6875 -36.640625 L 2.289062 -36.640625 C 1.648438 -36.640625 1.144531 -36.136719 1.144531 -35.496094 L 1.144531 -1.144531 C 1.144531 -0.503906 1.695312 0 2.335938 0 Z M 2.335938 0 "/></g></g></g><g fill="#ec297b" fill-opacity="1"><g transform="translate(114.862318, 95.258942)"><g><path d="M 2.335938 0 L 13.742188 0 C 14.382812 0 14.886719 -0.503906 14.886719 -1.144531 L 14.886719 -7.558594 C 14.886719 -8.199219 15.390625 -8.703125 16.03125 -8.703125 C 16.671875 -8.703125 17.175781 -8.152344 17.175781 -7.511719 L 17.175781 -1.144531 C 17.175781 -0.503906 17.726562 0 18.367188 0 L 29.769531 0 C 30.414062 0 30.917969 -0.503906 30.917969 -1.144531 L 30.917969 -27.296875 C 30.917969 -32.703125 26.976562 -36.640625 21.574219 -36.640625 L 10.488281 -36.640625 C 5.085938 -36.640625 1.144531 -32.703125 1.144531 -27.296875 L 1.144531 -1.144531 C 1.144531 -0.503906 1.695312 0 2.335938 0 Z M 16.03125 -19.695312 C 15.390625 -19.695312 14.886719 -20.199219 14.886719 -20.839844 L 14.886719 -24.503906 C 14.886719 -25.144531 15.390625 -25.648438 16.03125 -25.648438 C 16.671875 -25.648438 17.175781 -25.144531 17.175781 -24.503906 L 17.175781 -20.839844 C 17.175781 -20.199219 16.671875 -19.695312 16.03125 -19.695312 Z M 16.03125 -19.695312 "/></g></g></g><g fill="#ec297b" fill-opacity="1"><g transform="translate(146.922372, 95.258942)"><g><path d="M 2.289062 0 L 28.441406 0 C 33.847656 0 37.785156 -3.9375 37.785156 -9.34375 L 37.785156 -14.472656 C 37.785156 -19.878906 33.847656 -23.816406 28.441406 -23.816406 L 16.03125 -23.816406 C 15.390625 -23.816406 14.886719 -24.320312 14.886719 -24.960938 C 14.886719 -25.601562 15.390625 -26.105469 16.03125 -26.105469 L 36.640625 -26.105469 C 37.28125 -26.105469 37.785156 -26.609375 37.785156 -27.253906 L 37.785156 -35.496094 C 37.785156 -36.136719 37.28125 -36.640625 36.640625 -36.640625 L 10.488281 -36.640625 C 5.085938 -36.640625 1.144531 -32.703125 1.144531 -27.296875 L 1.144531 -22.167969 C 1.144531 -16.761719 5.085938 -12.824219 10.488281 -12.824219 L 22.902344 -12.824219 C 23.542969 -12.824219 24.046875 -12.320312 24.046875 -11.679688 C 24.046875 -11.039062 23.542969 -10.535156 22.902344 -10.535156 L 2.289062 -10.535156 C 1.648438 -10.535156 1.144531 -10.03125 1.144531 -9.390625 L 1.144531 -1.144531 C 1.144531 -0.503906 1.648438 0 2.289062 0 Z M 2.289062 0 "/></g></g></g><g fill="#ec297b" fill-opacity="1"><g transform="translate(185.852428, 95.258942)"><g><path d="M 2.335938 0 L 13.742188 0 C 14.382812 0 14.886719 -0.503906 14.886719 -1.144531 L 14.886719 -11.222656 C 14.886719 -11.863281 15.390625 -12.367188 16.03125 -12.367188 C 16.671875 -12.367188 17.175781 -11.816406 17.175781 -11.175781 L 17.175781 -1.144531 C 17.175781 -0.503906 17.726562 0 18.367188 0 L 29.769531 0 C 30.414062 0 30.917969 -0.503906 30.917969 -1.144531 L 30.917969 -35.496094 C 30.917969 -36.136719 30.367188 -36.640625 29.726562 -36.640625 L 18.320312 -36.640625 C 17.679688 -36.640625 17.175781 -36.136719 17.175781 -35.496094 L 17.175781 -25.421875 C 17.175781 -24.777344 16.671875 -24.273438 16.03125 -24.273438 C 15.390625 -24.273438 14.886719 -24.777344 14.886719 -25.421875 L 14.886719 -35.496094 C 14.886719 -36.136719 14.335938 -36.640625 13.695312 -36.640625 L 2.289062 -36.640625 C 1.648438 -36.640625 1.144531 -36.136719 1.144531 -35.496094 L 1.144531 -1.144531 C 1.144531 -0.503906 1.695312 0 2.335938 0 Z M 2.335938 0 "/></g></g></g><g fill="#ec297b" fill-opacity="1"><g transform="translate(217.912481, 95.258942)"><g><path d="M 2.335938 0 L 13.742188 0 C 14.382812 0 14.886719 -0.503906 14.886719 -1.144531 L 14.886719 -35.496094 C 14.886719 -36.136719 14.335938 -36.640625 13.695312 -36.640625 L 2.289062 -36.640625 C 1.648438 -36.640625 1.144531 -36.136719 1.144531 -35.496094 L 1.144531 -1.144531 C 1.144531 -0.503906 1.695312 0 2.335938 0 Z M 2.335938 0 "/></g></g></g><g fill="#ec297b" fill-opacity="1"><g transform="translate(233.942508, 95.258942)"><g><path d="M 10.488281 0 L 21.574219 0 C 26.976562 0 30.917969 -3.9375 30.917969 -9.34375 L 30.917969 -27.296875 C 30.917969 -32.703125 26.976562 -36.640625 21.574219 -36.640625 L 10.488281 -36.640625 C 5.085938 -36.640625 1.144531 -32.703125 1.144531 -27.296875 L 1.144531 -9.34375 C 1.144531 -3.9375 5.085938 0 10.488281 0 Z M 16.03125 -10.535156 C 15.390625 -10.535156 14.886719 -11.039062 14.886719 -11.679688 L 14.886719 -24.960938 C 14.886719 -25.601562 15.390625 -26.105469 16.03125 -26.105469 C 16.671875 -26.105469 17.175781 -25.601562 17.175781 -24.960938 L 17.175781 -11.679688 C 17.175781 -11.039062 16.671875 -10.535156 16.03125 -10.535156 Z M 16.03125 -10.535156 "/></g></g></g><g fill="#ec297b" fill-opacity="1"><g transform="translate(266.002562, 95.258942)"><g><path d="M 2.335938 0 L 13.742188 0 C 14.382812 0 14.886719 -0.503906 14.886719 -1.144531 L 14.886719 -21.527344 C 14.886719 -22.167969 15.390625 -22.671875 16.03125 -22.671875 C 16.671875 -22.671875 17.175781 -22.167969 17.175781 -21.527344 L 17.175781 -1.097656 C 17.175781 -0.414062 17.679688 0 18.367188 0 L 43.511719 0 C 44.152344 0 44.65625 -0.503906 44.65625 -1.144531 L 44.65625 -35.496094 C 44.65625 -36.136719 44.152344 -36.640625 43.511719 -36.640625 L 32.0625 -36.640625 C 31.421875 -36.640625 30.917969 -36.136719 30.917969 -35.496094 L 30.917969 -14.792969 C 30.917969 -14.152344 30.414062 -13.648438 29.769531 -13.648438 C 29.128906 -13.648438 28.625 -14.152344 28.625 -14.792969 L 28.625 -35.542969 C 28.625 -36.273438 28.121094 -36.640625 27.433594 -36.640625 L 2.289062 -36.640625 C 1.648438 -36.640625 1.144531 -36.136719 1.144531 -35.496094 L 1.144531 -1.144531 C 1.144531 -0.503906 1.695312 0 2.335938 0 Z M 2.335938 0 "/></g></g></g><path stroke-linecap="butt" transform="matrix(0.826316, 0, 0, 0.826316, 142.268095, 108.700637)" fill="none" stroke-linejoin="miter" d="M 6.066874 -0.46972 L 5.329414 4.933592 L 4.776319 4.933592 C 3.982131 4.933592 3.429036 4.933592 3.083943 4.99032 C 2.559212 5.042321 2.190482 5.198322 1.925753 5.411051 C 1.689387 5.647416 1.500295 6.101237 1.344294 6.758333 C 1.297021 7.075063 1.183565 7.708522 1.055928 8.658711 L 4.799956 8.658711 L 4.672318 9.604172 L 4.14286 13.329291 L 4.015223 14.307844 C 3.854494 15.281669 3.750493 15.943492 3.693766 16.283858 L 3.693766 16.680952 C 3.693766 16.992954 3.750493 17.257683 3.854494 17.446776 C 4.038859 17.711505 4.459589 17.89587 5.149776 17.976234 C 5.513779 17.976234 6.147238 17.999871 7.073791 17.999871 L 9.470536 17.999871 C 10.501089 17.999871 11.191275 17.976234 11.531642 17.94787 C 12.0611 17.872233 12.453467 17.735142 12.694559 17.522413 C 12.907288 17.319138 13.091653 16.945681 13.21929 16.468223 C 13.323291 16.099493 13.432019 15.38567 13.564384 14.307844 L 7.75925 14.307844 L 7.891615 13.329291 L 8.421073 9.604172 L 8.548711 8.658711 L 10.609817 8.658711 C 11.720734 8.658711 12.42983 8.630347 12.770196 8.606711 C 13.299655 8.531074 13.696749 8.393982 13.937841 8.233253 C 14.174207 8.025252 14.353844 7.708522 14.490936 7.287792 C 14.594937 6.919062 14.727302 6.153238 14.883303 4.933592 L 9.078169 4.933592 L 9.314534 3.245944 C 9.470536 2.324119 9.555627 1.74266 9.555627 1.506294 C 9.607627 1.269929 9.607627 1.080837 9.607627 0.924836 C 9.607627 0.63647 9.579264 0.400104 9.503627 0.234649 C 9.342898 -0.129354 8.917441 -0.342083 8.184708 -0.394083 C 7.782887 -0.446084 7.073791 -0.46972 6.066874 -0.46972 Z M 20.574981 -0.46972 C 19.331699 -0.46972 18.518602 -0.446084 18.145145 -0.394083 C 17.729142 -0.342083 17.379321 -0.181354 17.176047 0.0313745 C 16.963318 0.234649 16.774226 0.63647 16.646588 1.217929 C 16.561497 1.529931 16.457496 2.220118 16.296768 3.222307 L 16.221131 3.936131 L 19.969886 3.936131 Z M 16.093493 4.909956 L 15.190578 11.301276 L 14.240389 17.999871 C 15.564035 17.999871 16.405496 17.94787 16.774226 17.872233 C 17.27532 17.763505 17.620414 17.550777 17.833143 17.234047 C 17.993871 16.992954 18.121508 16.652588 18.197145 16.17513 C 18.282237 15.834764 18.386238 15.206032 18.518602 14.307844 L 19.076425 10.242359 L 19.832794 4.909956 Z M 24.928831 4.909956 C 23.713913 4.909956 22.919726 4.933592 22.550996 4.99032 C 22.073538 5.042321 21.709535 5.198322 21.444806 5.434687 C 21.203713 5.647416 21.019348 6.101237 20.891711 6.729969 C 20.83971 7.046699 20.730982 7.651794 20.574981 8.606711 L 19.780793 14.251116 C 19.648429 15.305305 19.568065 15.995492 19.544428 16.364222 L 19.544428 16.548587 C 19.544428 16.917317 19.596428 17.182047 19.705157 17.366412 C 19.861158 17.607504 20.12116 17.763505 20.48989 17.872233 C 20.863347 17.924234 21.548806 17.976234 22.602996 17.976234 L 32.577615 17.976234 L 32.577615 17.550777 C 32.577615 16.756589 32.577615 16.236585 32.525615 15.910401 C 32.501978 15.333669 32.397977 14.964939 32.185249 14.75221 C 32.02452 14.539482 31.731427 14.411844 31.315424 14.359844 C 31.022331 14.307844 30.360508 14.274752 29.334682 14.274752 L 23.524821 14.274752 C 23.581549 13.986387 23.609913 13.806749 23.609913 13.721657 C 23.633549 13.565656 23.661913 13.456928 23.713913 13.404928 C 23.761186 13.352927 23.846278 13.329291 23.926642 13.329291 C 24.002279 13.300927 24.139371 13.300927 24.319009 13.300927 L 29.859413 13.300927 C 30.785966 13.300927 31.419425 13.27729 31.759791 13.22529 C 32.289249 13.168562 32.662707 13.012561 32.899072 12.799832 C 33.107074 12.563467 33.291439 12.194737 33.395439 11.693642 C 33.504167 11.353276 33.608168 10.663089 33.74526 9.604172 L 33.896534 8.606711 C 34.009989 7.760522 34.085626 7.207427 34.109263 6.919062 C 34.137627 6.677969 34.137627 6.493604 34.137627 6.337603 C 34.137627 5.808144 34.033626 5.434687 33.768897 5.255049 C 33.556168 5.094321 33.159074 4.99032 32.577615 4.933592 C 32.260886 4.909956 31.632154 4.909956 30.677238 4.909956 Z M 24.980832 8.630347 L 30.124143 8.630347 C 30.095779 8.92344 30.072142 9.136169 30.043778 9.235442 C 30.043778 9.348898 30.020142 9.400898 29.968141 9.448171 C 29.916141 9.500172 29.807413 9.552172 29.651412 9.580536 L 24.186644 9.580536 C 24.238645 9.263806 24.267008 9.084169 24.267008 8.999077 C 24.319009 8.895076 24.342645 8.819439 24.375736 8.762712 C 24.427737 8.710711 24.479737 8.658711 24.531738 8.658711 C 24.583738 8.630347 24.744466 8.630347 24.980832 8.630347 Z M 35.187089 8.658711 L 35.049997 9.604172 L 34.520539 13.329291 L 34.392901 14.307844 L 33.863443 17.999871 C 34.997997 17.999871 35.740184 17.976234 36.08055 17.94787 C 36.558008 17.872233 36.926738 17.735142 37.139467 17.574413 C 37.399469 17.366412 37.612198 17.054409 37.716199 16.600588 C 37.820199 16.236585 37.980928 15.466034 38.141656 14.307844 L 38.269294 13.329291 L 38.798752 9.604172 C 38.850752 9.315807 38.879116 9.136169 38.879116 9.051077 C 38.926389 8.895076 39.011481 8.786348 39.063481 8.734348 C 39.139118 8.682347 39.219482 8.658711 39.32821 8.658711 C 39.380211 8.630347 39.455848 8.630347 39.540939 8.630347 C 39.64494 8.630347 39.772577 8.630347 39.909669 8.658711 L 44.740978 8.658711 L 44.603886 9.604172 L 44.074427 13.329291 L 43.94679 14.307844 L 43.417332 17.999871 C 44.707887 17.999871 45.554075 17.94787 45.927532 17.89587 C 46.371899 17.787142 46.693356 17.631141 46.89663 17.394775 C 47.109359 17.182047 47.246451 16.84168 47.350451 16.416223 C 47.454452 16.075857 47.56318 15.357306 47.690818 14.307844 L 47.82791 13.329291 L 48.352641 9.604172 L 48.485005 8.658711 C 48.645734 7.495793 48.721371 6.729969 48.721371 6.389603 L 48.721371 6.205238 C 48.697734 5.751417 48.560642 5.434687 48.352641 5.283413 C 48.191912 5.122685 47.927183 5.042321 47.586817 4.99032 C 47.270087 4.933592 46.768993 4.933592 46.055169 4.933592 L 38.638024 4.933592 C 37.957291 4.933592 37.451469 4.933592 37.139467 4.99032 C 36.714009 5.042321 36.39728 5.146321 36.184551 5.30705 C 35.919822 5.486687 35.71182 5.836508 35.551092 6.337603 C 35.475455 6.677969 35.338363 7.44852 35.187089 8.658711 Z M 59.797452 3.245944 L 59.55636 4.909956 L 53.41086 4.909956 C 52.403943 4.909956 51.694847 4.933592 51.32139 5.018684 C 50.905387 5.070684 50.565021 5.231413 50.352292 5.434687 C 50.139563 5.647416 49.983562 5.992509 49.84647 6.46524 C 49.770833 6.810334 49.662105 7.524157 49.506104 8.630347 C 49.397376 9.263806 49.269738 10.190359 49.080646 11.45255 C 48.924645 12.724195 48.79228 13.64602 48.711916 14.274752 C 48.612643 15.125668 48.527551 15.678763 48.475551 15.995492 C 48.475551 16.203494 48.447187 16.416223 48.447187 16.576951 C 48.447187 16.992954 48.551188 17.319138 48.711916 17.522413 C 48.867917 17.683141 49.132646 17.815506 49.506104 17.89587 C 49.874834 17.94787 50.664294 17.999871 51.879212 17.999871 L 57.793074 17.999871 C 58.974901 17.999871 59.769089 17.976234 60.137819 17.924234 C 60.534912 17.839142 60.828006 17.735142 61.040734 17.607504 C 61.3291 17.394775 61.541829 16.992954 61.669466 16.468223 C 61.773467 16.12313 61.882195 15.38567 62.009832 14.274752 L 62.146924 13.300927 L 64.075666 -0.46972 C 62.941112 -0.46972 62.198925 -0.46972 61.830195 -0.422447 C 61.3291 -0.370447 60.955643 -0.209718 60.724005 0.00301064 C 60.511276 0.187376 60.322184 0.527742 60.194546 1.0052 C 60.085818 1.378657 59.958181 2.11139 59.797452 3.245944 Z M 54.153047 8.630347 L 59.026901 8.630347 L 58.398169 13.300927 C 58.346169 13.565656 58.317805 13.721657 58.270532 13.830385 C 58.242168 13.986387 58.185441 14.095115 58.105076 14.147115 C 58.057803 14.199115 57.977439 14.222752 57.868711 14.251116 C 57.76471 14.251116 57.551981 14.274752 57.187979 14.274752 L 52.465398 14.274752 L 53.122494 9.604172 C 53.174494 9.348898 53.198131 9.159806 53.198131 9.084169 C 53.250131 8.92344 53.283223 8.843076 53.335223 8.786348 C 53.382496 8.710711 53.486497 8.658711 53.595225 8.658711 C 53.699226 8.630347 53.888318 8.630347 54.153047 8.630347 Z M 74.77829 4.909956 L 64.567306 4.909956 L 64.567306 5.35905 C 64.567306 6.049237 64.590942 6.569241 64.590942 6.890698 C 64.642943 7.472157 64.746944 7.864523 64.907672 8.105616 C 65.096764 8.341981 65.413494 8.497982 65.881497 8.578347 C 66.202954 8.606711 66.86005 8.630347 67.810239 8.630347 L 73.6201 8.630347 C 73.587009 8.92344 73.563372 9.107805 73.535008 9.211806 C 73.535008 9.315807 73.511372 9.400898 73.459371 9.448171 C 73.407371 9.500172 73.32228 9.552172 73.218279 9.580536 C 73.166278 9.580536 73.00555 9.604172 72.802276 9.604172 L 67.285508 9.604172 C 66.306955 9.604172 65.616768 9.637264 65.248038 9.689264 C 64.798944 9.741264 64.458578 9.901993 64.217485 10.133631 C 64.014211 10.34636 63.825119 10.771817 63.692754 11.400549 C 63.640754 11.717279 63.536753 12.350738 63.399661 13.300927 L 63.248387 14.274752 C 63.111295 15.333669 63.035658 16.047493 63.007294 16.416223 L 63.007294 16.576951 C 63.007294 16.992954 63.059295 17.286047 63.220023 17.498776 C 63.376024 17.683141 63.640754 17.815506 64.014211 17.89587 C 64.378214 17.94787 65.200765 17.999871 66.467684 17.999871 L 72.187726 17.999871 C 73.511372 17.999871 74.352833 17.94787 74.72629 17.89587 C 75.09502 17.815506 75.383386 17.711505 75.596115 17.550777 C 75.837207 17.366412 76.016845 17.078046 76.125573 16.704588 C 76.25321 16.335858 76.413939 15.546398 76.56994 14.274752 L 76.943397 11.589642 L 77.364128 8.630347 C 77.496492 7.680158 77.576856 7.046699 77.576856 6.729969 C 77.600493 6.569241 77.600493 6.46524 77.600493 6.365967 C 77.600493 5.808144 77.472856 5.434687 77.208126 5.255049 C 77.047398 5.122685 76.782669 5.042321 76.413939 4.99032 C 76.101936 4.933592 75.544114 4.909956 74.77829 4.909956 Z M 67.758238 13.300927 L 72.95355 13.300927 C 72.929913 13.59402 72.906276 13.778385 72.877913 13.882386 C 72.854276 13.986387 72.825912 14.095115 72.769185 14.147115 C 72.745548 14.199115 72.693548 14.222752 72.589547 14.251116 C 72.537547 14.251116 72.376818 14.274752 72.164089 14.274752 L 66.987687 14.274752 C 67.049142 14.071478 67.072779 13.91075 67.072779 13.830385 C 67.101143 13.617657 67.124779 13.490019 67.17678 13.433292 C 67.22878 13.381291 67.285508 13.329291 67.361145 13.329291 C 67.413145 13.300927 67.54551 13.300927 67.758238 13.300927 Z M 85.268186 4.909956 L 85.925282 9.689264 L 86.591832 14.274752 C 86.743106 15.333669 86.880198 16.047493 86.932198 16.416223 C 87.059836 16.84168 87.196927 17.153683 87.348201 17.366412 C 87.56093 17.607504 87.854023 17.763505 88.251117 17.872233 C 88.619847 17.94787 89.489672 17.999871 90.860591 17.999871 L 93.342427 17.999871 C 94.424981 17.999871 95.138804 17.94787 95.507534 17.89587 C 95.932992 17.815506 96.221358 17.659505 96.429359 17.446776 C 96.642088 17.234047 96.774453 16.893681 96.878453 16.439859 C 96.982454 16.075857 97.091182 15.357306 97.247183 14.274752 L 98.036644 8.658711 C 98.2021 7.547794 98.277737 6.83397 98.277737 6.517241 L 98.277737 6.337603 C 98.277737 5.860145 98.2021 5.519779 98.013007 5.335414 C 97.83337 5.122685 97.459912 5.018684 96.906817 4.966684 C 96.590088 4.909956 96.084266 4.909956 95.351533 4.909956 L 94.822075 4.909956 L 94.183888 9.348898 L 93.630793 13.329291 C 93.607157 13.64602 93.578793 13.830385 93.526792 13.934386 C 93.503156 14.043114 93.474792 14.095115 93.427519 14.147115 C 93.366064 14.199115 93.314064 14.222752 93.21479 14.251116 C 93.101335 14.251116 92.921697 14.274752 92.609695 14.274752 L 90.331132 14.274752 L 89.541672 8.606711 C 89.437671 7.680158 89.33367 7.075063 89.248579 6.758333 C 89.149305 6.101237 88.936577 5.647416 88.671847 5.411051 C 88.459119 5.169958 88.066752 5.018684 87.485293 4.966684 C 87.144927 4.909956 86.40274 4.909956 85.268186 4.909956 Z M 104.366509 -0.46972 C 103.123227 -0.46972 102.31013 -0.446084 101.936673 -0.394083 C 101.52067 -0.342083 101.170849 -0.181354 100.962847 0.0313745 C 100.750118 0.234649 100.565753 0.63647 100.438116 1.217929 C 100.353025 1.529931 100.249024 2.220118 100.088295 3.222307 L 100.012658 3.936131 L 103.761413 3.936131 Z M 99.880294 4.909956 L 98.982105 11.301276 L 98.031917 17.999871 C 99.355563 17.999871 100.197023 17.94787 100.565753 17.872233 C 101.066848 17.763505 101.407214 17.550777 101.619943 17.234047 C 101.780671 16.992954 101.913036 16.652588 101.988673 16.17513 C 102.073765 15.834764 102.177765 15.206032 102.31013 14.307844 L 102.863225 10.242359 L 103.624321 4.909956 Z M 104.654874 8.630347 L 103.335956 17.999871 C 104.758875 17.999871 105.652336 17.94787 106.025794 17.872233 C 106.394524 17.763505 106.659253 17.607504 106.843618 17.394775 C 107.051619 17.153683 107.188711 16.78968 107.287985 16.312222 C 107.373076 15.971856 107.477077 15.305305 107.609442 14.307844 L 108.242901 9.741264 C 108.294901 9.400898 108.346902 9.188169 108.370538 9.084169 C 108.422539 8.92344 108.479266 8.819439 108.583267 8.762712 C 108.663631 8.710711 108.772359 8.658711 108.899997 8.658711 C 109.037089 8.630347 109.301818 8.630347 109.694184 8.630347 L 114.175672 8.630347 C 115.286589 8.630347 116.000413 8.606711 116.340779 8.578347 C 116.893874 8.531074 117.295695 8.393982 117.53206 8.181253 C 117.79679 7.973251 117.976427 7.599794 118.113519 7.098699 C 118.21752 6.729969 118.321521 6.016146 118.482249 4.933592 L 108.346902 4.933592 C 107.448713 4.933592 106.843618 4.966684 106.470161 5.018684 C 106.054158 5.070684 105.709064 5.231413 105.496335 5.463051 C 105.283606 5.67578 105.099241 6.072874 104.971604 6.654332 C 104.919604 6.971062 104.810876 7.628158 104.654874 8.630347 Z M 123.616105 -0.46972 L 122.878645 4.933592 L 122.320823 4.933592 C 121.531363 4.933592 120.978268 4.933592 120.633174 4.99032 C 120.108443 5.042321 119.739713 5.198322 119.474984 5.411051 C 119.238619 5.647416 119.049526 6.101237 118.893525 6.758333 C 118.846252 7.075063 118.732797 7.708522 118.605159 8.658711 L 122.349187 8.658711 L 122.22155 9.604172 L 121.692091 13.329291 L 121.564454 14.307844 C 121.403725 15.281669 121.299725 15.943492 121.242997 16.283858 L 121.242997 16.680952 C 121.242997 16.992954 121.299725 17.257683 121.403725 17.446776 C 121.58809 17.711505 122.008821 17.89587 122.699008 17.976234 C 123.06301 17.976234 123.69647 17.999871 124.623022 17.999871 L 127.019767 17.999871 C 128.05032 17.999871 128.740507 17.976234 129.080873 17.94787 C 129.610331 17.872233 130.002698 17.735142 130.239063 17.522413 C 130.451792 17.319138 130.640884 16.945681 130.768522 16.468223 C 130.872523 16.099493 130.981251 15.38567 131.108888 14.307844 L 125.308481 14.307844 L 125.440846 13.329291 L 125.970305 9.604172 L 126.097942 8.658711 L 128.159048 8.658711 C 129.269965 8.658711 129.979061 8.630347 130.319428 8.606711 C 130.848886 8.531074 131.24598 8.393982 131.487073 8.233253 C 131.723438 8.025252 131.903076 7.708522 132.040168 7.287792 C 132.144168 6.919062 132.276533 6.153238 132.432534 4.933592 L 126.6274 4.933592 L 126.863766 3.245944 C 127.019767 2.324119 127.104858 1.74266 127.104858 1.506294 C 127.156859 1.269929 127.156859 1.080837 127.156859 0.924836 C 127.156859 0.63647 127.128495 0.400104 127.052858 0.234649 C 126.89213 -0.129354 126.466672 -0.342083 125.729212 -0.394083 C 125.332118 -0.446084 124.623022 -0.46972 123.616105 -0.46972 Z M 133.349632 4.909956 L 132.848537 8.630347 C 132.796537 9.107805 132.687809 9.953993 132.47508 11.272912 C 132.295442 12.563467 132.15835 13.565656 132.054349 14.274752 C 131.921985 15.125668 131.841621 15.730763 131.817984 16.047493 C 131.817984 16.236585 131.78962 16.416223 131.78962 16.576951 C 131.78962 16.893681 131.841621 17.153683 131.921985 17.366412 C 132.082713 17.631141 132.371079 17.815506 132.848537 17.89587 C 133.188903 17.94787 133.793999 17.999871 134.696914 17.999871 L 141.660239 17.999871 C 142.582064 17.999871 143.22025 17.94787 143.560616 17.89587 C 144.066438 17.787142 144.430441 17.607504 144.64317 17.319138 C 144.799171 17.078046 144.959899 16.704588 145.0639 16.203494 C 145.148992 15.863128 145.248265 15.229668 145.352266 14.274752 L 146.146453 8.630347 C 146.283545 7.651794 146.359182 7.023062 146.382819 6.706333 L 146.382819 6.365967 C 146.382819 5.992509 146.330818 5.699416 146.22209 5.519779 C 146.094453 5.255049 145.806087 5.070684 145.328629 5.018684 C 144.988263 4.933592 144.194075 4.909956 142.92243 4.909956 L 142.402426 8.630347 L 141.608238 14.274752 L 136.724929 14.274752 C 136.384563 14.274752 136.171834 14.274752 136.067834 14.251116 C 135.987469 14.199115 135.935469 14.170752 135.883469 14.123479 C 135.883469 14.071478 135.855105 13.958023 135.855105 13.858749 C 135.883469 13.754749 135.907105 13.59402 135.935469 13.329291 L 136.592565 8.630347 C 136.724929 7.628158 136.805294 7.023062 136.805294 6.810334 C 136.857294 6.602332 136.857294 6.417967 136.857294 6.252511 C 136.857294 5.888509 136.805294 5.623779 136.672929 5.463051 C 136.512201 5.198322 136.171834 5.042321 135.618739 4.99032 C 135.278373 4.933592 134.512549 4.909956 133.349632 4.909956 Z M 157.884358 4.909956 L 147.673374 4.909956 L 147.673374 5.35905 C 147.673374 6.049237 147.69701 6.569241 147.69701 6.890698 C 147.749011 7.472157 147.853012 7.864523 148.01374 8.105616 C 148.198105 8.341981 148.514835 8.497982 148.987565 8.578347 C 149.309022 8.606711 149.966118 8.630347 150.91158 8.630347 L 156.726168 8.630347 C 156.693077 8.92344 156.664713 9.107805 156.641076 9.211806 C 156.641076 9.315807 156.612713 9.400898 156.560712 9.448171 C 156.513439 9.500172 156.428348 9.552172 156.324347 9.580536 C 156.272346 9.580536 156.111618 9.604172 155.903616 9.604172 L 150.391576 9.604172 C 149.413023 9.604172 148.722836 9.637264 148.354106 9.689264 C 147.905012 9.741264 147.559918 9.901993 147.323553 10.133631 C 147.115552 10.34636 146.931187 10.771817 146.794095 11.400549 C 146.742094 11.717279 146.642821 12.350738 146.505729 13.300927 L 146.349728 14.274752 C 146.217363 15.333669 146.136999 16.047493 146.113362 16.416223 L 146.113362 16.576951 C 146.113362 16.992954 146.165363 17.286047 146.326091 17.498776 C 146.482092 17.683141 146.742094 17.815506 147.115552 17.89587 C 147.484282 17.94787 148.302106 17.999871 149.573752 17.999871 L 155.293794 17.999871 C 156.612713 17.999871 157.458901 17.94787 157.832358 17.89587 C 158.201088 17.815506 158.489454 17.711505 158.702183 17.550777 C 158.938548 17.366412 159.122913 17.078046 159.231641 16.704588 C 159.359278 16.335858 159.520007 15.546398 159.676008 14.274752 L 160.049465 11.589642 L 160.465468 8.630347 C 160.60256 7.680158 160.678197 7.046699 160.678197 6.729969 C 160.706561 6.569241 160.706561 6.46524 160.706561 6.365967 C 160.706561 5.808144 160.578924 5.434687 160.314194 5.255049 C 160.153466 5.122685 159.888737 5.042321 159.520007 4.99032 C 159.203277 4.933592 158.650182 4.909956 157.884358 4.909956 Z M 150.859579 13.300927 L 156.059618 13.300927 C 156.035981 13.59402 156.007617 13.778385 155.983981 13.882386 C 155.955617 13.986387 155.93198 14.095115 155.875253 14.147115 C 155.846889 14.199115 155.794888 14.222752 155.690888 14.251116 C 155.643615 14.251116 155.482886 14.274752 155.270157 14.274752 L 150.093755 14.274752 C 150.150483 14.071478 150.178847 13.91075 150.178847 13.830385 C 150.202483 13.617657 150.230847 13.490019 150.282848 13.433292 C 150.334848 13.381291 150.391576 13.329291 150.467213 13.329291 C 150.519213 13.300927 150.64685 13.300927 150.859579 13.300927 Z M 166.766969 -0.46972 C 165.71278 -0.46972 164.970592 -0.46972 164.601862 -0.422447 C 164.185859 -0.370447 163.836039 -0.290082 163.594946 -0.129354 C 163.282944 0.055011 163.041851 0.423741 162.890577 0.976836 C 162.810213 1.317202 162.677848 2.059389 162.488756 3.222307 L 161.250201 12.223101 L 160.432377 17.999871 C 161.491294 17.999871 162.20039 17.976234 162.545484 17.94787 C 163.178943 17.872233 163.628037 17.683141 163.892766 17.418412 C 164.100768 17.182047 164.261496 16.813317 164.365497 16.312222 C 164.474225 15.943492 164.578226 15.281669 164.710591 14.307844 L 165.632416 7.576157 Z M 166.766969 -0.46972 " stroke="#fff48b" stroke-width="6.92769" stroke-opacity="1" stroke-miterlimit="4"/><g fill="#ec297b" fill-opacity="1"><g transform="translate(142.268095, 123.574326)"><g><path d="M 5.015625 -15.265625 L 4.40625 -10.792969 L 3.945312 -10.792969 C 3.292969 -10.792969 2.835938 -10.792969 2.550781 -10.75 C 2.113281 -10.707031 1.808594 -10.574219 1.59375 -10.402344 C 1.394531 -10.207031 1.242188 -9.835938 1.113281 -9.289062 C 1.070312 -9.027344 0.980469 -8.503906 0.871094 -7.71875 L 3.96875 -7.71875 L 3.859375 -6.933594 L 3.421875 -3.859375 L 3.316406 -3.054688 C 3.183594 -2.246094 3.097656 -1.699219 3.054688 -1.417969 L 3.054688 -1.089844 C 3.054688 -0.828125 3.097656 -0.609375 3.183594 -0.457031 C 3.335938 -0.238281 3.683594 -0.0859375 4.253906 -0.0234375 C 4.558594 -0.0234375 5.082031 0 5.84375 0 L 7.828125 0 C 8.679688 0 9.246094 -0.0234375 9.53125 -0.0429688 C 9.964844 -0.109375 10.292969 -0.21875 10.488281 -0.390625 C 10.664062 -0.566406 10.816406 -0.871094 10.925781 -1.265625 C 11.011719 -1.570312 11.097656 -2.160156 11.207031 -3.054688 L 6.410156 -3.054688 L 6.519531 -3.859375 L 6.957031 -6.933594 L 7.066406 -7.71875 L 8.765625 -7.71875 C 9.683594 -7.71875 10.269531 -7.742188 10.554688 -7.761719 C 10.992188 -7.828125 11.316406 -7.9375 11.515625 -8.070312 C 11.710938 -8.242188 11.863281 -8.503906 11.972656 -8.851562 C 12.058594 -9.160156 12.167969 -9.792969 12.300781 -10.792969 L 7.5 -10.792969 L 7.699219 -12.191406 C 7.828125 -12.953125 7.894531 -13.433594 7.894531 -13.628906 C 7.9375 -13.824219 7.9375 -13.976562 7.9375 -14.109375 C 7.9375 -14.347656 7.914062 -14.546875 7.851562 -14.675781 C 7.71875 -14.980469 7.371094 -15.15625 6.761719 -15.199219 C 6.433594 -15.242188 5.84375 -15.265625 5.015625 -15.265625 Z M 5.015625 -15.265625 "/></g></g></g><g fill="#ec297b" fill-opacity="1"><g transform="translate(153.818594, 123.574326)"><g><path d="M 5.453125 -15.265625 C 4.425781 -15.265625 3.75 -15.242188 3.445312 -15.199219 C 3.097656 -15.15625 2.8125 -15.023438 2.636719 -14.851562 C 2.464844 -14.675781 2.3125 -14.347656 2.203125 -13.867188 C 2.136719 -13.605469 2.050781 -13.039062 1.917969 -12.210938 L 1.855469 -11.621094 L 4.949219 -11.621094 Z M 1.746094 -10.816406 L 1.003906 -5.539062 L 0.21875 0 C 1.308594 0 2.007812 -0.0429688 2.3125 -0.109375 C 2.726562 -0.195312 3.007812 -0.371094 3.183594 -0.632812 C 3.316406 -0.828125 3.421875 -1.113281 3.488281 -1.503906 C 3.554688 -1.789062 3.640625 -2.3125 3.75 -3.054688 L 4.207031 -6.410156 L 4.839844 -10.816406 Z M 1.746094 -10.816406 "/></g></g></g><g fill="#ec297b" fill-opacity="1"><g transform="translate(158.198833, 123.574326)"><g><path d="M 4.667969 -10.816406 C 3.664062 -10.816406 3.007812 -10.792969 2.703125 -10.75 C 2.3125 -10.707031 2.007812 -10.574219 1.789062 -10.378906 C 1.59375 -10.207031 1.4375 -9.835938 1.332031 -9.3125 C 1.285156 -9.050781 1.199219 -8.546875 1.070312 -7.761719 L 0.414062 -3.097656 C 0.304688 -2.222656 0.238281 -1.65625 0.21875 -1.351562 L 0.21875 -1.199219 C 0.21875 -0.894531 0.261719 -0.675781 0.347656 -0.523438 C 0.480469 -0.328125 0.699219 -0.195312 1.003906 -0.109375 C 1.308594 -0.0664062 1.875 -0.0234375 2.746094 -0.0234375 L 10.992188 -0.0234375 L 10.992188 -0.371094 C 10.992188 -1.023438 10.992188 -1.460938 10.945312 -1.722656 C 10.925781 -2.203125 10.835938 -2.507812 10.664062 -2.683594 C 10.53125 -2.855469 10.292969 -2.964844 9.945312 -3.007812 C 9.703125 -3.054688 9.160156 -3.074219 8.308594 -3.074219 L 3.511719 -3.074219 C 3.554688 -3.316406 3.578125 -3.46875 3.578125 -3.53125 C 3.597656 -3.664062 3.621094 -3.75 3.664062 -3.792969 C 3.707031 -3.839844 3.773438 -3.859375 3.839844 -3.859375 C 3.902344 -3.882812 4.011719 -3.882812 4.164062 -3.882812 L 8.746094 -3.882812 C 9.507812 -3.882812 10.03125 -3.902344 10.316406 -3.945312 C 10.75 -3.992188 11.054688 -4.121094 11.253906 -4.296875 C 11.425781 -4.492188 11.578125 -4.796875 11.667969 -5.210938 C 11.753906 -5.496094 11.839844 -6.0625 11.949219 -6.933594 L 12.082031 -7.761719 C 12.167969 -8.460938 12.234375 -8.917969 12.253906 -9.160156 C 12.277344 -9.355469 12.277344 -9.507812 12.277344 -9.636719 C 12.277344 -10.074219 12.191406 -10.378906 11.972656 -10.53125 C 11.796875 -10.664062 11.46875 -10.75 10.992188 -10.792969 C 10.730469 -10.816406 10.207031 -10.816406 9.421875 -10.816406 Z M 4.710938 -7.742188 L 8.960938 -7.742188 C 8.941406 -7.5 8.917969 -7.328125 8.898438 -7.238281 C 8.898438 -7.152344 8.875 -7.109375 8.832031 -7.066406 C 8.789062 -7.023438 8.699219 -6.976562 8.570312 -6.957031 L 4.054688 -6.957031 C 4.101562 -7.21875 4.121094 -7.371094 4.121094 -7.4375 C 4.164062 -7.523438 4.1875 -7.589844 4.207031 -7.632812 C 4.253906 -7.675781 4.296875 -7.71875 4.339844 -7.71875 C 4.382812 -7.742188 4.515625 -7.742188 4.710938 -7.742188 Z M 4.710938 -7.742188 "/></g></g></g><g fill="#ec297b" fill-opacity="1"><g transform="translate(170.032658, 123.574326)"><g><path d="M 1.308594 -7.71875 L 1.199219 -6.933594 L 0.761719 -3.859375 L 0.652344 -3.054688 L 0.21875 0 C 1.15625 0 1.765625 -0.0234375 2.050781 -0.0429688 C 2.441406 -0.109375 2.746094 -0.21875 2.921875 -0.347656 C 3.140625 -0.523438 3.316406 -0.785156 3.402344 -1.15625 C 3.488281 -1.460938 3.621094 -2.09375 3.75 -3.054688 L 3.859375 -3.859375 L 4.296875 -6.933594 C 4.339844 -7.175781 4.359375 -7.328125 4.359375 -7.390625 C 4.40625 -7.523438 4.46875 -7.609375 4.515625 -7.652344 C 4.578125 -7.699219 4.644531 -7.71875 4.730469 -7.71875 C 4.777344 -7.742188 4.839844 -7.742188 4.90625 -7.742188 C 4.992188 -7.742188 5.101562 -7.742188 5.210938 -7.71875 L 9.203125 -7.71875 L 9.09375 -6.933594 L 8.65625 -3.859375 L 8.546875 -3.054688 L 8.113281 0 C 9.179688 0 9.878906 -0.0429688 10.183594 -0.0859375 C 10.554688 -0.175781 10.816406 -0.304688 10.992188 -0.5 C 11.164062 -0.675781 11.273438 -0.960938 11.359375 -1.308594 C 11.449219 -1.59375 11.535156 -2.179688 11.644531 -3.054688 L 11.753906 -3.859375 L 12.191406 -6.933594 L 12.300781 -7.71875 C 12.429688 -8.679688 12.496094 -9.3125 12.496094 -9.59375 L 12.496094 -9.746094 C 12.472656 -10.117188 12.363281 -10.378906 12.191406 -10.511719 C 12.058594 -10.640625 11.839844 -10.707031 11.558594 -10.75 C 11.296875 -10.792969 10.882812 -10.792969 10.292969 -10.792969 L 4.164062 -10.792969 C 3.597656 -10.792969 3.183594 -10.792969 2.921875 -10.75 C 2.574219 -10.707031 2.3125 -10.621094 2.136719 -10.488281 C 1.917969 -10.335938 1.746094 -10.054688 1.613281 -9.636719 C 1.546875 -9.355469 1.4375 -8.722656 1.308594 -7.71875 Z M 1.308594 -7.71875 "/></g></g></g><g fill="#ec297b" fill-opacity="1"><g transform="translate(182.084426, 123.574326)"><g><path d="M 9.59375 -12.191406 L 9.398438 -10.816406 L 4.316406 -10.816406 C 3.488281 -10.816406 2.898438 -10.792969 2.59375 -10.730469 C 2.246094 -10.683594 1.960938 -10.554688 1.789062 -10.378906 C 1.613281 -10.207031 1.484375 -9.921875 1.375 -9.53125 C 1.308594 -9.246094 1.222656 -8.65625 1.089844 -7.742188 C 1.003906 -7.21875 0.894531 -6.453125 0.742188 -5.40625 C 0.609375 -4.359375 0.5 -3.597656 0.4375 -3.074219 C 0.347656 -2.375 0.285156 -1.917969 0.238281 -1.65625 C 0.238281 -1.484375 0.21875 -1.308594 0.21875 -1.175781 C 0.21875 -0.828125 0.304688 -0.566406 0.4375 -0.390625 C 0.566406 -0.261719 0.785156 -0.152344 1.089844 -0.0859375 C 1.394531 -0.0429688 2.050781 0 3.054688 0 L 7.9375 0 C 8.917969 0 9.574219 -0.0234375 9.878906 -0.0664062 C 10.207031 -0.128906 10.445312 -0.21875 10.621094 -0.328125 C 10.859375 -0.5 11.035156 -0.828125 11.144531 -1.265625 C 11.230469 -1.546875 11.316406 -2.160156 11.425781 -3.074219 L 11.535156 -3.882812 L 13.128906 -15.265625 C 12.191406 -15.265625 11.578125 -15.265625 11.273438 -15.222656 C 10.859375 -15.175781 10.554688 -15.046875 10.359375 -14.871094 C 10.183594 -14.71875 10.03125 -14.4375 9.921875 -14.042969 C 9.835938 -13.738281 9.726562 -13.128906 9.59375 -12.191406 Z M 4.929688 -7.742188 L 8.960938 -7.742188 L 8.4375 -3.882812 C 8.394531 -3.664062 8.375 -3.53125 8.328125 -3.445312 C 8.308594 -3.316406 8.265625 -3.226562 8.199219 -3.183594 C 8.15625 -3.140625 8.089844 -3.117188 8.003906 -3.097656 C 7.914062 -3.097656 7.742188 -3.074219 7.4375 -3.074219 L 3.53125 -3.074219 L 4.078125 -6.933594 C 4.121094 -7.152344 4.144531 -7.304688 4.144531 -7.371094 C 4.1875 -7.5 4.207031 -7.566406 4.253906 -7.609375 C 4.296875 -7.675781 4.382812 -7.71875 4.46875 -7.71875 C 4.558594 -7.742188 4.710938 -7.742188 4.929688 -7.742188 Z M 4.929688 -7.742188 "/></g></g></g><g fill="#ec297b" fill-opacity="1"><g transform="translate(194.114407, 123.574326)"><g><path d="M 9.945312 -10.816406 L 1.503906 -10.816406 L 1.503906 -10.445312 C 1.503906 -9.878906 1.527344 -9.441406 1.527344 -9.179688 C 1.570312 -8.699219 1.65625 -8.375 1.789062 -8.175781 C 1.941406 -7.980469 2.203125 -7.851562 2.59375 -7.785156 C 2.855469 -7.761719 3.402344 -7.742188 4.1875 -7.742188 L 8.984375 -7.742188 C 8.960938 -7.5 8.941406 -7.347656 8.917969 -7.261719 C 8.917969 -7.175781 8.898438 -7.109375 8.851562 -7.066406 C 8.808594 -7.023438 8.746094 -6.976562 8.65625 -6.957031 C 8.613281 -6.957031 8.484375 -6.933594 8.308594 -6.933594 L 3.75 -6.933594 C 2.945312 -6.933594 2.375 -6.914062 2.070312 -6.867188 C 1.699219 -6.824219 1.417969 -6.695312 1.222656 -6.5 C 1.046875 -6.324219 0.894531 -5.976562 0.785156 -5.453125 C 0.742188 -5.191406 0.652344 -4.667969 0.546875 -3.882812 L 0.414062 -3.074219 C 0.304688 -2.203125 0.238281 -1.613281 0.21875 -1.308594 L 0.21875 -1.175781 C 0.21875 -0.828125 0.261719 -0.589844 0.390625 -0.414062 C 0.523438 -0.261719 0.742188 -0.152344 1.046875 -0.0859375 C 1.351562 -0.0429688 2.027344 0 3.074219 0 L 7.808594 0 C 8.898438 0 9.59375 -0.0429688 9.898438 -0.0859375 C 10.207031 -0.152344 10.445312 -0.238281 10.621094 -0.371094 C 10.816406 -0.523438 10.96875 -0.761719 11.054688 -1.070312 C 11.164062 -1.375 11.296875 -2.027344 11.425781 -3.074219 L 11.730469 -5.300781 L 12.082031 -7.742188 C 12.191406 -8.527344 12.253906 -9.050781 12.253906 -9.3125 C 12.277344 -9.441406 12.277344 -9.53125 12.277344 -9.617188 C 12.277344 -10.074219 12.167969 -10.378906 11.949219 -10.53125 C 11.820312 -10.640625 11.601562 -10.707031 11.296875 -10.75 C 11.035156 -10.792969 10.574219 -10.816406 9.945312 -10.816406 Z M 4.144531 -3.882812 L 8.4375 -3.882812 C 8.417969 -3.640625 8.394531 -3.488281 8.375 -3.402344 C 8.351562 -3.316406 8.328125 -3.226562 8.285156 -3.183594 C 8.265625 -3.140625 8.222656 -3.117188 8.132812 -3.097656 C 8.089844 -3.097656 7.960938 -3.074219 7.785156 -3.074219 L 3.511719 -3.074219 C 3.554688 -3.25 3.578125 -3.378906 3.578125 -3.445312 C 3.597656 -3.621094 3.621094 -3.730469 3.664062 -3.773438 C 3.707031 -3.816406 3.75 -3.859375 3.816406 -3.859375 C 3.859375 -3.882812 3.96875 -3.882812 4.144531 -3.882812 Z M 4.144531 -3.882812 "/></g></g></g><g fill="#ec297b" fill-opacity="1"><g transform="translate(205.948235, 123.574326)"><g/></g></g><g fill="#ec297b" fill-opacity="1"><g transform="translate(211.854063, 123.574326)"><g><path d="M 0.871094 -10.816406 L 1.417969 -6.867188 L 1.960938 -3.074219 C 2.09375 -2.203125 2.203125 -1.613281 2.246094 -1.308594 C 2.355469 -0.960938 2.464844 -0.699219 2.59375 -0.523438 C 2.769531 -0.328125 3.007812 -0.195312 3.335938 -0.109375 C 3.640625 -0.0429688 4.359375 0 5.496094 0 L 7.546875 0 C 8.4375 0 9.027344 -0.0429688 9.332031 -0.0859375 C 9.683594 -0.152344 9.921875 -0.285156 10.097656 -0.457031 C 10.269531 -0.632812 10.378906 -0.914062 10.46875 -1.285156 C 10.554688 -1.59375 10.640625 -2.179688 10.773438 -3.074219 L 11.425781 -7.71875 C 11.558594 -8.636719 11.621094 -9.222656 11.621094 -9.484375 L 11.621094 -9.636719 C 11.621094 -10.03125 11.558594 -10.316406 11.40625 -10.46875 C 11.253906 -10.640625 10.945312 -10.730469 10.488281 -10.773438 C 10.226562 -10.816406 9.8125 -10.816406 9.203125 -10.816406 L 8.765625 -10.816406 L 8.242188 -7.152344 L 7.785156 -3.859375 C 7.761719 -3.597656 7.742188 -3.445312 7.699219 -3.359375 C 7.675781 -3.269531 7.652344 -3.226562 7.609375 -3.183594 C 7.566406 -3.140625 7.523438 -3.117188 7.4375 -3.097656 C 7.347656 -3.097656 7.195312 -3.074219 6.933594 -3.074219 L 5.058594 -3.074219 L 4.40625 -7.761719 C 4.316406 -8.527344 4.230469 -9.027344 4.164062 -9.289062 C 4.078125 -9.835938 3.902344 -10.207031 3.683594 -10.402344 C 3.511719 -10.597656 3.183594 -10.730469 2.703125 -10.773438 C 2.421875 -10.816406 1.808594 -10.816406 0.871094 -10.816406 Z M 0.871094 -10.816406 "/></g></g></g><g fill="#ec297b" fill-opacity="1"><g transform="translate(223.055862, 123.574326)"><g><path d="M 5.453125 -15.265625 C 4.425781 -15.265625 3.75 -15.242188 3.445312 -15.199219 C 3.097656 -15.15625 2.8125 -15.023438 2.636719 -14.851562 C 2.464844 -14.675781 2.3125 -14.347656 2.203125 -13.867188 C 2.136719 -13.605469 2.050781 -13.039062 1.917969 -12.210938 L 1.855469 -11.621094 L 4.949219 -11.621094 Z M 1.746094 -10.816406 L 1.003906 -5.539062 L 0.21875 0 C 1.308594 0 2.007812 -0.0429688 2.3125 -0.109375 C 2.726562 -0.195312 3.007812 -0.371094 3.183594 -0.632812 C 3.316406 -0.828125 3.421875 -1.113281 3.488281 -1.503906 C 3.554688 -1.789062 3.640625 -2.3125 3.75 -3.054688 L 4.207031 -6.410156 L 4.839844 -10.816406 Z M 1.746094 -10.816406 "/></g></g></g><g fill="#ec297b" fill-opacity="1"><g transform="translate(227.436102, 123.574326)"><g><path d="M 1.308594 -7.742188 L 0.21875 0 C 1.394531 0 2.136719 -0.0429688 2.441406 -0.109375 C 2.746094 -0.195312 2.964844 -0.328125 3.117188 -0.5 C 3.292969 -0.699219 3.402344 -1.003906 3.488281 -1.394531 C 3.554688 -1.679688 3.640625 -2.222656 3.75 -3.054688 L 4.273438 -6.824219 C 4.316406 -7.109375 4.359375 -7.285156 4.382812 -7.371094 C 4.425781 -7.5 4.46875 -7.589844 4.558594 -7.632812 C 4.621094 -7.675781 4.710938 -7.71875 4.820312 -7.71875 C 4.929688 -7.742188 5.144531 -7.742188 5.472656 -7.742188 L 9.179688 -7.742188 C 10.097656 -7.742188 10.683594 -7.761719 10.96875 -7.785156 C 11.425781 -7.828125 11.753906 -7.9375 11.949219 -8.113281 C 12.167969 -8.285156 12.320312 -8.589844 12.429688 -9.007812 C 12.515625 -9.3125 12.605469 -9.898438 12.734375 -10.792969 L 4.359375 -10.792969 C 3.621094 -10.792969 3.117188 -10.773438 2.8125 -10.730469 C 2.464844 -10.683594 2.179688 -10.554688 2.007812 -10.359375 C 1.832031 -10.183594 1.679688 -9.855469 1.570312 -9.375 C 1.527344 -9.113281 1.4375 -8.570312 1.308594 -7.742188 Z M 1.308594 -7.742188 "/></g></g></g><g fill="#ec297b" fill-opacity="1"><g transform="translate(239.400694, 123.574326)"><g><path d="M 5.015625 -15.265625 L 4.40625 -10.792969 L 3.945312 -10.792969 C 3.292969 -10.792969 2.835938 -10.792969 2.550781 -10.75 C 2.113281 -10.707031 1.808594 -10.574219 1.59375 -10.402344 C 1.394531 -10.207031 1.242188 -9.835938 1.113281 -9.289062 C 1.070312 -9.027344 0.980469 -8.503906 0.871094 -7.71875 L 3.96875 -7.71875 L 3.859375 -6.933594 L 3.421875 -3.859375 L 3.316406 -3.054688 C 3.183594 -2.246094 3.097656 -1.699219 3.054688 -1.417969 L 3.054688 -1.089844 C 3.054688 -0.828125 3.097656 -0.609375 3.183594 -0.457031 C 3.335938 -0.238281 3.683594 -0.0859375 4.253906 -0.0234375 C 4.558594 -0.0234375 5.082031 0 5.84375 0 L 7.828125 0 C 8.679688 0 9.246094 -0.0234375 9.53125 -0.0429688 C 9.964844 -0.109375 10.292969 -0.21875 10.488281 -0.390625 C 10.664062 -0.566406 10.816406 -0.871094 10.925781 -1.265625 C 11.011719 -1.570312 11.097656 -2.160156 11.207031 -3.054688 L 6.410156 -3.054688 L 6.519531 -3.859375 L 6.957031 -6.933594 L 7.066406 -7.71875 L 8.765625 -7.71875 C 9.683594 -7.71875 10.269531 -7.742188 10.554688 -7.761719 C 10.992188 -7.828125 11.316406 -7.9375 11.515625 -8.070312 C 11.710938 -8.242188 11.863281 -8.503906 11.972656 -8.851562 C 12.058594 -9.160156 12.167969 -9.792969 12.300781 -10.792969 L 7.5 -10.792969 L 7.699219 -12.191406 C 7.828125 -12.953125 7.894531 -13.433594 7.894531 -13.628906 C 7.9375 -13.824219 7.9375 -13.976562 7.9375 -14.109375 C 7.9375 -14.347656 7.914062 -14.546875 7.851562 -14.675781 C 7.71875 -14.980469 7.371094 -15.15625 6.761719 -15.199219 C 6.433594 -15.242188 5.84375 -15.265625 5.015625 -15.265625 Z M 5.015625 -15.265625 "/></g></g></g><g fill="#ec297b" fill-opacity="1"><g transform="translate(250.951195, 123.574326)"><g><path d="M 1.503906 -10.816406 L 1.089844 -7.742188 C 1.046875 -7.347656 0.960938 -6.652344 0.785156 -5.5625 C 0.632812 -4.492188 0.523438 -3.664062 0.4375 -3.074219 C 0.328125 -2.375 0.261719 -1.875 0.238281 -1.613281 C 0.238281 -1.460938 0.21875 -1.308594 0.21875 -1.175781 C 0.21875 -0.914062 0.261719 -0.699219 0.328125 -0.523438 C 0.457031 -0.304688 0.699219 -0.152344 1.089844 -0.0859375 C 1.375 -0.0429688 1.875 0 2.617188 0 L 8.375 0 C 9.136719 0 9.660156 -0.0429688 9.945312 -0.0859375 C 10.359375 -0.175781 10.664062 -0.328125 10.835938 -0.566406 C 10.96875 -0.761719 11.097656 -1.070312 11.1875 -1.484375 C 11.253906 -1.765625 11.339844 -2.289062 11.425781 -3.074219 L 12.082031 -7.742188 C 12.191406 -8.546875 12.253906 -9.070312 12.277344 -9.332031 L 12.277344 -9.617188 C 12.277344 -9.921875 12.234375 -10.160156 12.144531 -10.316406 C 12.039062 -10.53125 11.796875 -10.683594 11.40625 -10.730469 C 11.121094 -10.792969 10.46875 -10.816406 9.421875 -10.816406 L 8.984375 -7.742188 L 8.328125 -3.074219 L 4.296875 -3.074219 C 4.011719 -3.074219 3.839844 -3.074219 3.75 -3.097656 C 3.683594 -3.140625 3.640625 -3.160156 3.597656 -3.207031 C 3.597656 -3.25 3.578125 -3.335938 3.578125 -3.421875 C 3.597656 -3.511719 3.621094 -3.640625 3.640625 -3.859375 L 4.1875 -7.742188 C 4.296875 -8.570312 4.359375 -9.070312 4.359375 -9.246094 C 4.40625 -9.421875 4.40625 -9.574219 4.40625 -9.703125 C 4.40625 -10.007812 4.359375 -10.226562 4.253906 -10.359375 C 4.121094 -10.574219 3.839844 -10.707031 3.378906 -10.75 C 3.097656 -10.792969 2.464844 -10.816406 1.503906 -10.816406 Z M 1.503906 -10.816406 "/></g></g></g><g fill="#ec297b" fill-opacity="1"><g transform="translate(262.785017, 123.574326)"><g><path d="M 9.945312 -10.816406 L 1.503906 -10.816406 L 1.503906 -10.445312 C 1.503906 -9.878906 1.527344 -9.441406 1.527344 -9.179688 C 1.570312 -8.699219 1.65625 -8.375 1.789062 -8.175781 C 1.941406 -7.980469 2.203125 -7.851562 2.59375 -7.785156 C 2.855469 -7.761719 3.402344 -7.742188 4.1875 -7.742188 L 8.984375 -7.742188 C 8.960938 -7.5 8.941406 -7.347656 8.917969 -7.261719 C 8.917969 -7.175781 8.898438 -7.109375 8.851562 -7.066406 C 8.808594 -7.023438 8.746094 -6.976562 8.65625 -6.957031 C 8.613281 -6.957031 8.484375 -6.933594 8.308594 -6.933594 L 3.75 -6.933594 C 2.945312 -6.933594 2.375 -6.914062 2.070312 -6.867188 C 1.699219 -6.824219 1.417969 -6.695312 1.222656 -6.5 C 1.046875 -6.324219 0.894531 -5.976562 0.785156 -5.453125 C 0.742188 -5.191406 0.652344 -4.667969 0.546875 -3.882812 L 0.414062 -3.074219 C 0.304688 -2.203125 0.238281 -1.613281 0.21875 -1.308594 L 0.21875 -1.175781 C 0.21875 -0.828125 0.261719 -0.589844 0.390625 -0.414062 C 0.523438 -0.261719 0.742188 -0.152344 1.046875 -0.0859375 C 1.351562 -0.0429688 2.027344 0 3.074219 0 L 7.808594 0 C 8.898438 0 9.59375 -0.0429688 9.898438 -0.0859375 C 10.207031 -0.152344 10.445312 -0.238281 10.621094 -0.371094 C 10.816406 -0.523438 10.96875 -0.761719 11.054688 -1.070312 C 11.164062 -1.375 11.296875 -2.027344 11.425781 -3.074219 L 11.730469 -5.300781 L 12.082031 -7.742188 C 12.191406 -8.527344 12.253906 -9.050781 12.253906 -9.3125 C 12.277344 -9.441406 12.277344 -9.53125 12.277344 -9.617188 C 12.277344 -10.074219 12.167969 -10.378906 11.949219 -10.53125 C 11.820312 -10.640625 11.601562 -10.707031 11.296875 -10.75 C 11.035156 -10.792969 10.574219 -10.816406 9.945312 -10.816406 Z M 4.144531 -3.882812 L 8.4375 -3.882812 C 8.417969 -3.640625 8.394531 -3.488281 8.375 -3.402344 C 8.351562 -3.316406 8.328125 -3.226562 8.285156 -3.183594 C 8.265625 -3.140625 8.222656 -3.117188 8.132812 -3.097656 C 8.089844 -3.097656 7.960938 -3.074219 7.785156 -3.074219 L 3.511719 -3.074219 C 3.554688 -3.25 3.578125 -3.378906 3.578125 -3.445312 C 3.597656 -3.621094 3.621094 -3.730469 3.664062 -3.773438 C 3.707031 -3.816406 3.75 -3.859375 3.816406 -3.859375 C 3.859375 -3.882812 3.96875 -3.882812 4.144531 -3.882812 Z M 4.144531 -3.882812 "/></g></g></g><g fill="#ec297b" fill-opacity="1"><g transform="translate(274.61884, 123.574326)"><g><path d="M 5.453125 -15.265625 C 4.578125 -15.265625 3.96875 -15.265625 3.664062 -15.222656 C 3.316406 -15.175781 3.03125 -15.113281 2.835938 -14.980469 C 2.574219 -14.828125 2.375 -14.523438 2.246094 -14.066406 C 2.179688 -13.78125 2.070312 -13.171875 1.917969 -12.210938 L 0.894531 -4.777344 L 0.21875 0 C 1.089844 0 1.679688 -0.0234375 1.960938 -0.0429688 C 2.484375 -0.109375 2.855469 -0.261719 3.074219 -0.480469 C 3.25 -0.675781 3.378906 -0.980469 3.46875 -1.394531 C 3.554688 -1.699219 3.640625 -2.246094 3.75 -3.054688 L 4.515625 -8.613281 Z M 5.453125 -15.265625 "/></g></g></g></svg>